<svg width="109" height="105" viewBox="0 0 109 105" fill="none" xmlns="http://www.w3.org/2000/svg">
<g clip-path="url(#clip0_65_256)">
<path d="M17.6306 78.9972C17.7369 78.9512 17.8303 78.8723 17.9254 78.8081C18.4052 78.4802 18.8799 78.1436 19.3529 77.8052C19.592 77.6343 19.8473 77.4764 20.053 77.2639C20.3331 76.9742 20.5628 76.6245 20.7984 76.2984C21.5602 75.2461 22.3133 74.1799 23.1976 73.2282C23.4058 73.0044 23.6218 72.7867 23.848 72.5811C23.9748 72.4657 24.1076 72.359 24.2396 72.2506C24.901 71.7049 21.7341 73.9214 22.5387 73.4529C22.6235 73.4035 22.7066 73.354 22.794 73.3107C23.2824 73.0652 23.7469 73.0088 24.279 73.1207C26.0424 73.4911 27.559 74.5807 29.0971 75.4699C30.6497 76.3669 32.2014 76.9906 34.012 76.9637C35.6537 76.9395 37.2715 76.5404 38.783 75.9036C40.836 75.0387 42.6474 73.7184 44.4476 72.4171C46.1082 71.2174 47.6283 69.8484 49.0121 68.3303C51.3779 65.7364 53.4103 62.7938 54.5345 59.427C55.6587 56.0602 55.8489 52.4375 55.6801 48.8981C55.4557 44.1849 54.8627 39.4682 54.0641 34.8227C53.2989 30.3724 52.3153 25.9446 51.0069 21.6236C48.989 14.9593 46.6138 8.368 44.0158 1.91373C43.7587 1.27437 43.4965 0.636753 43.2275 0.002603C42.4906 0.522241 41.7537 1.04188 41.0168 1.56239C46.1999 5.74205 50.6864 10.8109 54.9115 15.9544C56.1514 17.463 57.3673 18.9924 58.5626 20.5374C59.5917 21.8665 60.655 23.1842 61.5599 24.6043C63.0919 27.0091 64.2427 29.655 65.1921 32.3434C67.2443 38.1548 68.4473 44.3202 68.976 50.4622C69.2433 53.5661 69.3573 56.7083 69.2519 59.8235C69.1816 61.9038 68.9974 64.0092 68.4302 66.0175C67.5587 69.1041 65.588 71.6424 64.0096 74.3751C63.7509 74.8227 63.4998 75.2738 63.2556 75.7293C63.283 75.6781 63.5735 75.5167 63.5846 75.5089C63.8468 75.3276 64.1082 75.1446 64.3687 74.9607C64.6291 74.7768 64.8896 74.5928 65.1475 74.4063C65.2307 74.3465 65.4183 74.258 65.4654 74.1704C66.33 72.5594 67.3077 71.0222 68.2716 69.4719C69.0437 68.2305 69.7711 66.9596 70.2775 65.5811C70.9253 63.8166 71.2184 61.9437 71.364 60.0742C71.5997 57.0422 71.5011 53.9799 71.3323 50.9471C70.9947 44.8746 69.9211 38.7786 68.126 32.9732C67.2486 30.1364 66.1792 27.3404 64.762 24.7327C63.1682 21.8005 60.9901 19.2153 58.9225 16.6206C54.6151 11.2152 50.0557 5.90254 44.8461 1.36112C44.3148 0.897873 43.7759 0.445901 43.2275 0.00347051C43.1555 -0.0546527 41.0091 1.5433 41.0168 1.56325C43.6705 7.82234 45.9446 14.2818 48.0336 20.7543C50.6624 28.8994 52.3059 37.3489 53.1207 45.8739C53.4943 49.7855 53.7934 53.7683 53.1421 57.6677C52.616 60.8159 51.401 63.7507 49.6093 66.3749C48.4817 68.0258 47.1767 69.5648 45.7672 70.9753C45.0363 71.7066 44.2703 72.4032 43.4622 73.0478C43.2832 73.1909 43.1015 73.3298 42.919 73.4686C42.2404 73.9882 44.5976 72.3148 44.0081 72.7043C43.9172 72.7641 43.8264 72.8257 43.7339 72.8847C43.314 73.1554 42.8847 73.4113 42.4443 73.6473C39.573 75.1932 35.9879 76.1084 32.8844 74.7325C31.2538 74.0099 29.8202 72.9099 28.2042 72.1569C27.5367 71.8454 26.7484 71.5071 26.0021 71.4915C25.5197 71.4811 25.0656 71.6936 24.6637 71.9443C23.1436 72.8908 21.6793 73.9492 20.5122 75.3242C19.7333 76.242 19.0521 77.2344 18.3358 78.2026C18.2167 78.3639 18.0968 78.5253 17.9682 78.6788C17.1765 79.6244 18.179 78.1644 19.8379 77.44C19.448 77.61 19.0727 77.9631 18.7248 78.2086C18.4643 78.3925 18.2039 78.5764 17.9459 78.763C17.8483 78.8332 17.7352 78.9521 17.6281 78.9989L17.6306 78.9972Z" fill="#FBF8F0"/>
<path d="M18.0865 75.626C18.628 70.8652 19.999 66.2344 21.6279 61.7494C23.2919 57.168 25.2601 52.709 27.2103 48.2474C28.092 46.2313 28.972 44.2135 29.8014 42.1749C30.7388 39.8708 31.5819 37.5259 32.4499 35.194C34.305 30.2084 36.1181 25.2055 37.7864 20.1523C39.6921 14.3816 41.4024 8.54324 42.8016 2.62422L41.8214 0.0832802C42.2472 3.78494 41.285 7.54907 40.746 11.1891C40.453 13.1662 40.3142 15.1615 40.1274 17.1515C39.9166 19.388 39.6972 21.6244 39.471 23.8591C38.561 32.8595 37.5457 41.8487 36.6006 50.8448C36.071 55.8859 35.5646 60.9304 35.1096 65.9793C35.1028 66.0574 35.2296 66.3159 35.2442 66.355C35.3564 66.656 35.4712 66.9553 35.5869 67.2546C35.7026 67.5539 35.8182 67.8531 35.9373 68.1516C35.9716 68.2375 36.0976 68.4352 36.0899 68.5203C36.9013 59.5112 37.8798 50.5186 38.8524 41.5268C39.3356 37.0592 39.8172 32.5906 40.2756 28.1195C40.5078 25.8561 40.734 23.5919 40.9517 21.326C41.1547 19.2153 41.2918 17.0908 41.5532 14.9862C41.8162 12.8634 42.2275 10.7632 42.5283 8.64647C42.811 6.65987 43.0321 4.6273 42.8016 2.62335C42.7545 2.21215 42.4726 1.73242 42.3243 1.34811C42.2087 1.04882 42.093 0.749528 41.9739 0.451104C41.9448 0.379101 41.8059 0.147476 41.8214 0.0824127C39.3433 10.5637 35.8662 20.7552 32.1415 30.84C30.4852 35.3241 28.8057 39.7849 26.9009 44.1675C24.9765 48.5962 22.9954 53.0031 21.2757 57.5194C19.3658 62.5336 17.7155 67.7248 17.1071 73.0834C17.0985 73.158 17.2296 73.426 17.2416 73.459C17.3539 73.76 17.4687 74.0593 17.5844 74.3586C17.7 74.6579 17.8157 74.9572 17.9348 75.2556C17.9682 75.3398 18.0968 75.5428 18.0873 75.6243L18.0865 75.626Z" fill="#FBF8F0"/>
<path d="M37.2586 94.0546C37.1866 93.9912 37.0606 94.1457 37.154 94.0277C37.2552 94.0147 37.3297 94.0121 37.2586 94.0546Z" fill="#FFD21F"/>
<path d="M47.0936 92.3803C47.4604 92.9693 46.7415 92.8661 46.9128 93.338C46.9163 93.3805 46.6301 93.1272 46.6549 93.2365C46.9085 93.7518 46.4227 93.934 45.918 93.9921L45.8469 93.9184C45.7535 93.9314 45.9797 94.183 45.9043 94.2125C45.8495 94.1751 45.84 94.1413 45.7569 94.1031C45.9103 94.2298 45.7646 94.2567 45.87 94.3643C45.7903 94.3417 45.6635 94.2506 45.5718 94.2298L45.7355 94.3894C46.1219 94.785 45.5616 94.5863 45.7098 94.8657C45.6704 94.8301 45.6447 94.7945 45.595 94.7755C45.7355 95.1563 45.5221 95.3662 45.4776 95.6525C45.4159 95.5979 45.3019 95.5094 45.218 95.4703C45.4082 95.6152 45.4133 95.7167 45.4142 95.8017C45.1931 95.6907 45.5333 96.0281 45.3756 96.0212L45.3336 95.9848C45.5136 96.18 45.1614 95.9778 45.3902 96.1912L45.2085 96.1158C45.4819 96.3318 45.0115 96.0889 45.1289 96.2294L45.1897 96.2684C45.2334 96.3552 45.074 96.278 45.0997 96.3483L45.0629 96.3292C45.0826 96.4671 44.8898 96.4099 45.116 96.5582C44.9146 96.4671 45.0886 96.4194 44.7964 96.2919C44.8401 96.73 44.6053 96.9937 44.4237 97.2826C44.3123 97.2548 44.2711 97.2574 44.1812 97.208C44.2077 97.267 44.152 97.3433 44.2506 97.4457C44.2523 97.4326 44.1229 97.3875 44.1006 97.3945C43.9832 97.391 44.3123 97.6166 44.1726 97.6061C44.128 97.5446 44.0612 97.4882 43.9721 97.4405C44.1152 97.6053 44.0449 97.6521 44.0646 97.7476C44.0329 97.7137 44.0201 97.6851 43.9464 97.64C44.1049 97.8352 43.8316 97.7285 43.9215 97.8673L43.805 97.7606C43.5891 97.7458 44.0604 97.967 43.9173 97.9818C43.8881 97.9358 43.8316 97.908 43.781 97.8699C43.9712 98.098 43.8179 98.1631 43.853 98.288C43.8376 98.2715 43.8016 98.2498 43.8016 98.2498C43.781 98.347 43.6551 98.3808 43.703 98.5352C43.6242 98.5283 43.392 98.3158 43.3851 98.4303C43.6491 98.5994 43.404 98.6428 43.7313 98.7877C43.6431 98.8302 43.4717 98.8771 43.5317 98.9838C43.452 98.8866 43.1881 98.8085 43.2052 98.7356L43.0158 98.6749C42.9139 98.5986 43.0827 98.6532 42.9387 98.5795C42.931 98.6159 42.9781 98.7695 42.9199 98.7686C43.045 98.9282 43.3132 99.1746 43.29 99.2848C43.2146 99.1763 42.9859 99.12 42.9593 99.0627L43.3834 99.5138C43.3774 99.5511 43.1709 99.3845 43.2138 99.4722C43.2849 99.5155 43.314 99.5606 43.3629 99.611C43.3269 99.6032 43.3509 99.7767 43.0852 99.6214C42.9747 99.5685 43.0621 99.5381 42.949 99.5112C42.9173 99.5676 43.0038 99.6274 42.973 99.6838L42.9379 99.6621C42.877 99.6734 42.9807 99.84 43.1487 99.8938C43.1727 99.8738 42.9876 99.8027 43.0844 99.8131C43.2181 99.9354 43.2215 100.027 43.1898 100.084C43.1598 100.039 43.0895 99.9961 43.021 99.9406C43.1778 100.145 43.1932 100.265 43.2258 100.4C43.3492 100.482 43.0218 100.226 43.0947 100.256C42.8573 100.249 43.2009 100.629 42.8942 100.554C42.8813 100.526 43.075 100.66 43.0398 100.638C42.9927 100.679 42.8153 100.561 42.8608 100.636C42.8076 100.604 42.8093 100.621 42.8265 100.651C42.8402 100.686 42.865 100.741 42.8659 100.776C42.9233 100.852 42.8093 100.753 42.8222 100.705C42.8462 100.767 42.8548 100.895 42.8222 101.019C42.7905 101.142 42.7202 101.26 42.6063 101.272C42.6697 101.329 42.7562 101.605 42.7237 101.641L42.6011 101.472C42.5009 101.412 42.5334 101.612 42.4203 101.479C42.4726 101.618 42.488 101.499 42.494 101.382C42.4992 101.266 42.494 101.154 42.5257 101.273C42.4615 101.225 42.494 101.319 42.5189 101.401C42.5437 101.482 42.5626 101.55 42.4812 101.43C42.4615 101.469 42.476 101.552 42.4743 101.617C42.4726 101.681 42.4555 101.728 42.3775 101.683C42.4109 101.69 42.2438 101.388 42.2198 101.455C42.1804 101.581 42.2601 101.565 42.2481 101.707L42.2627 101.835C42.3689 102.018 42.1881 101.905 42.3338 102.07C42.2395 101.93 42.2867 102.333 42.1256 102.001L42.0013 101.733C41.9868 101.791 42.0964 102.07 42.1299 102.225C42.1144 102.207 42.0819 102.167 42.063 102.12C42.1573 102.327 42.1359 102.349 42.1059 102.364C42.075 102.378 42.0373 102.384 42.0887 102.58C42.0262 102.557 41.9859 102.618 41.9439 102.657C41.9019 102.696 41.8591 102.711 41.7974 102.587C41.7991 102.799 41.8051 103.054 41.722 103.038C41.7194 102.97 41.7306 102.934 41.704 102.822C41.632 102.728 41.6603 102.871 41.6509 103.005C41.6372 102.918 41.5112 102.808 41.4418 102.67C41.4358 102.898 41.5069 103.171 41.5395 103.357C41.4641 103.123 41.4521 103.26 41.4341 103.413C41.4178 103.565 41.3947 103.736 41.3304 103.516C41.3356 103.405 41.3518 103.128 41.2944 103.042C41.2327 102.785 41.2327 102.918 41.2302 103.102C41.2284 103.284 41.2242 103.518 41.177 103.425L41.249 103.9C41.2156 103.77 41.2002 103.884 41.1839 103.969C41.1676 104.053 41.1539 104.106 41.1333 103.835C41.1265 104.061 41.0417 103.789 41.0871 104.295C41.0442 104.224 41.0057 104.252 40.968 104.313C40.92 104.293 40.872 104.312 40.8274 104.254C40.7777 104.156 40.7332 103.99 40.7083 103.661C40.6903 103.719 40.6475 103.588 40.6526 103.836C40.6801 104.129 40.6972 103.7 40.7066 103.891C40.6903 103.886 40.6852 104.008 40.6835 104.07C40.6424 103.914 40.6149 103.846 40.6569 103.508C40.6192 103.318 40.5952 103.488 40.561 103.661C40.5284 103.834 40.4864 104.009 40.4307 103.852C40.4479 103.675 40.4436 103.6 40.4084 103.588C40.3802 103.665 40.3502 103.739 40.3185 103.813C40.2473 103.65 40.3168 103.366 40.3425 103.071C40.3039 103.078 40.2645 103.012 40.2208 103.204C40.2216 103.066 40.2242 102.93 40.2276 102.796C40.2208 103.09 40.1754 102.93 40.1488 102.978L40.1754 102.93C40.1874 102.801 40.1385 102.826 40.112 102.835C40.0863 103.012 40.1171 103.135 40.1342 103.213C40.0965 103.314 40.0717 103.246 40.0203 103.357C40.0751 103.098 39.9937 103.09 39.9689 103.026C39.9483 102.926 39.8806 103.211 39.872 103.189C39.9012 103.052 39.8198 103.094 39.8892 102.942C39.9097 102.913 39.8866 103.105 39.932 103.012C39.932 102.881 39.9877 102.652 39.9037 102.767C39.8395 102.85 39.7924 103.281 39.7624 103.035C39.7966 102.993 39.8249 102.898 39.8609 102.822C39.8515 102.754 39.8421 102.685 39.8352 102.618L39.7718 102.841C39.7795 102.772 39.7898 102.76 39.7949 102.725C39.7118 102.938 39.6844 102.674 39.5884 102.916C39.5473 102.896 39.5696 102.676 39.549 102.613L39.561 102.603C39.5704 102.429 39.4959 102.452 39.4076 102.547L39.4273 102.505C39.4136 102.462 39.3545 102.433 39.2748 102.515C39.2911 102.294 39.6038 101.748 39.4368 101.927C39.3931 101.872 39.1866 102.167 39.1429 102.317C39.1309 102.184 39.0597 102.156 38.9972 102.105C38.9355 102.055 38.8832 101.983 38.9338 101.792C38.8738 101.838 38.8524 101.892 38.795 101.889C38.7521 101.753 38.6416 101.692 38.5619 101.597C38.4857 101.5 38.4351 101.375 38.5294 101.171C38.6236 101.178 38.675 101.049 38.7573 100.978C38.6013 101.041 38.8635 100.812 38.6296 100.979C38.4985 101.093 38.43 101.139 38.4128 101.244C38.268 101.175 38.1463 100.962 38.2432 100.808C38.1969 100.885 38.1369 100.886 38.0761 100.883C38.1952 100.817 38.2492 100.754 38.2603 100.707C38.2654 100.684 38.2603 100.664 38.244 100.649C38.2363 100.641 38.226 100.634 38.2149 100.629C38.2046 100.626 38.1926 100.624 38.1789 100.623L38.0307 100.694L38.1626 100.583C38.1069 100.589 37.849 100.725 37.963 100.602C38.0178 100.57 38.0752 100.535 38.1103 100.505C37.9655 100.518 37.7273 100.551 37.8216 100.432L38.0127 100.275C37.9784 100.264 37.8293 100.29 37.7873 100.365C37.8679 100.203 37.8533 100.135 38.0247 100.011C37.4926 100.079 37.3589 99.8443 37.3006 99.637L37.4137 99.5901C37.4943 99.4895 37.2064 99.6561 37.2663 99.5832C37.382 99.5485 37.4797 99.4349 37.6297 99.4132C37.7119 99.2856 37.3923 99.4106 37.3195 99.3863C37.1712 99.447 37.4309 99.3811 37.2398 99.4591C37.1841 99.4748 37.3092 99.303 37.0821 99.3941C37.1618 99.3351 37.3306 99.2744 37.4257 99.2423L37.2972 99.2475C37.5337 99.0731 37.8164 99.1581 38.1112 98.9525L38.0581 98.9282C38.274 98.7825 38.3683 98.9126 38.4051 98.7747C38.2749 98.7825 37.9347 98.8927 37.855 98.9768C37.7522 98.9126 37.3032 99.1772 37.2783 99.067C37.3957 98.9811 37.3452 99.1338 37.52 99.0315C37.6785 98.9031 37.3769 98.9829 37.4214 98.9118C37.3572 98.9968 37.1138 99.0584 37.0607 99.0453C37.1438 98.9464 37.2869 98.9846 37.2783 98.9005C37.1438 98.9465 37.0153 98.9222 36.9527 99.0202C36.6477 99.1234 36.999 98.9074 36.7548 98.9681C36.9502 98.8536 37.2638 98.8337 37.3323 98.7079C37.1395 98.8076 37.0204 98.727 36.7428 98.8987C36.7865 98.8415 36.9425 98.7703 37.0744 98.74C37.1789 98.6411 36.664 98.7877 37.053 98.602L36.8422 98.674C36.903 98.6315 36.9442 98.589 37.0453 98.5188C37.0324 98.478 36.7145 98.5075 37.0247 98.3808C36.9879 98.3808 36.9622 98.2854 36.7634 98.4103C36.6571 98.5222 36.9476 98.4103 36.6725 98.563C36.8902 98.4233 36.6083 98.4936 36.514 98.4936L36.6314 98.4381C36.5766 98.4381 36.5834 98.3817 36.4489 98.4233C36.5235 98.4103 36.6023 98.3678 36.6237 98.3409L36.4326 98.3956C36.311 98.3522 36.7454 98.2438 36.6631 98.1874H36.8268C36.7916 98.1874 36.9527 98.0911 36.8799 98.0781C36.7094 98.131 36.4986 98.1856 36.3624 98.2264C36.2715 98.2117 36.544 98.1293 36.3538 98.1561L36.5774 98.1319C36.6357 98.118 36.8379 97.9818 36.8105 97.9254C36.7377 97.9115 36.4738 97.9497 36.4069 98.046C36.3915 98.0182 36.4789 97.9349 36.6091 97.9098C36.5252 97.8664 36.4335 97.9905 36.3067 97.974C36.4078 97.9063 36.5389 97.7692 36.6845 97.6617L36.9887 97.6105L36.9742 97.5706C37.2192 97.5324 37.1361 97.4769 37.3837 97.4127C37.4112 97.3719 37.3169 97.3711 37.2466 97.3693C36.8953 97.5975 36.6923 97.4838 36.3547 97.6409C36.2184 97.5662 37.1729 97.2479 36.5877 97.3416C36.5046 97.3945 36.221 97.4413 36.3469 97.4725C36.3598 97.3893 35.9819 97.5576 36.0933 97.4222C36.2595 97.4274 36.4223 97.2253 36.6631 97.2322C36.544 97.2704 36.592 97.3138 36.6288 97.3147C36.7522 97.2357 36.981 97.1871 36.9562 97.1186C36.9082 97.0891 36.8799 97.0336 36.7025 97.1099C36.5037 97.1863 36.7471 97.1663 36.5346 97.2158C36.4343 97.1568 36.7325 97.0301 36.3649 97.1264C36.4138 97.1689 36.2133 97.2591 36.077 97.3095L35.9699 97.2774L36.1079 97.2401C36.1644 97.1039 35.8542 97.2999 35.8542 97.188L36.1002 97.0457C36.3349 96.9859 36.0513 97.2253 36.4138 97.0718C36.4043 97.0041 36.209 97.0509 36.2852 96.9564C36.3212 96.9581 36.3358 96.9737 36.3744 96.9746C36.3769 96.9477 36.8593 96.7473 36.5414 96.7612C36.4129 96.7551 36.4052 96.7959 36.2673 96.8445C36.1901 96.7577 36.0385 96.7768 35.9939 96.7178C36.2681 96.6363 35.9802 96.592 36.2818 96.5677C36.1353 96.6562 36.2013 96.8002 36.472 96.743C36.7788 96.5912 36.454 96.8393 36.7839 96.7438C36.7634 96.6606 37.0787 96.5513 37.2818 96.4645C37.2886 96.4376 37.1935 96.4472 37.1567 96.4454C36.9587 96.5053 36.9716 96.533 36.7728 96.6068C36.7942 96.4983 36.6563 96.4506 36.4506 96.4662C36.5354 96.4029 36.7325 96.3457 36.7634 96.3743C36.6683 96.2884 36.6588 96.1635 36.6837 96.0412C36.3864 96.2147 36.5723 95.9518 36.3212 96.0854C36.2681 96.1643 36.0582 96.2884 35.9039 96.3058C35.9134 96.2632 36.0436 96.2598 36.1079 96.2225C35.9185 96.2364 36.3649 96.0602 36.0753 96.1088C36.2107 96.1748 36.4703 95.9995 36.7265 95.9345C36.5629 95.911 36.9048 95.8789 36.8816 95.8095C36.7214 95.7852 36.5826 95.7341 36.5037 95.6725C36.7128 95.4972 36.4326 95.4192 36.3949 95.3324C36.508 95.2474 36.8028 95.1927 36.8371 95.1285C36.8139 95.0721 36.5423 95.2639 36.6468 95.1381L36.7068 95.1294C36.6306 95.1233 36.8551 94.9134 36.4369 95.0062L36.7548 94.9438C36.7788 94.9195 36.7025 94.9247 36.6665 94.9212C36.7668 94.8917 36.8533 94.8466 36.9262 94.8535C37.1267 94.739 36.8611 94.752 36.8362 94.6956L36.6631 94.7841C36.4917 94.7234 36.6537 94.6072 36.5663 94.5256L36.7471 94.4814L36.6246 94.4519C36.8019 94.4207 36.9039 94.3391 36.7479 94.3461C36.9082 94.3582 37.0676 94.3695 37.2269 94.3781C37.1301 94.4475 36.9973 94.392 36.8268 94.464C36.6768 94.5274 36.7479 94.6046 36.9262 94.5716C36.9365 94.5326 36.8962 94.5421 36.8242 94.5326C37.0727 94.4536 37.0761 94.5074 37.2518 94.4866C37.2346 94.4727 37.304 94.4267 37.2244 94.4449C37.3563 94.4458 37.3846 94.4744 37.406 94.53C37.2972 94.5187 37.2578 94.5933 37.1824 94.5994C37.4026 94.543 37.4857 94.5777 37.4437 94.6653C37.2047 94.7885 37.6442 94.7486 37.5962 94.8492C37.3649 94.883 37.1755 94.8926 37.0718 94.8683C36.9759 94.9524 37.0941 94.9238 36.9964 95.0097C37.1712 94.9854 37.43 94.9273 37.5483 94.9637L37.3854 95.0166C37.4866 95.0513 37.729 94.9776 37.7076 95.0669C37.6648 95.2222 37.7051 95.3567 37.7179 95.4625L37.5577 95.5189C37.9236 95.4599 37.7462 95.6603 37.9227 95.6837C37.807 95.8633 38.1686 95.9024 37.9124 96.0637C38.0127 96.1531 38.1095 96.2346 38.184 96.3248C38.2603 96.4151 38.3143 96.5131 38.3271 96.6371L38.0804 96.6866C38.2663 96.6632 37.957 96.7638 38.0067 96.7907C38.1738 96.6744 38.268 96.7551 38.4205 96.7282C38.2757 96.8991 38.5216 96.9529 38.7179 96.9763L38.5602 97.0431C38.8927 97.0136 38.6733 97.2236 38.669 97.3563C38.6099 97.3953 38.4702 97.4769 38.4994 97.5029C38.7778 97.4578 38.7736 97.4968 38.9689 97.5177C38.9955 97.581 38.9775 97.7102 38.9047 97.8187C39.3579 97.9054 39.2423 98.2438 39.5619 98.3921L39.3871 98.4953C39.6347 98.5231 39.7067 98.6463 39.7512 98.779C39.7966 98.9109 39.8146 99.0532 39.9637 99.0991L39.6493 99.2362C39.5859 99.3472 39.8001 99.3368 40.0083 99.2084C39.9474 99.3186 40.2336 99.2822 40.0031 99.4539C39.9791 99.5468 40.1822 99.4557 40.2491 99.4852C40.2465 99.4965 40.2431 99.5077 40.2405 99.5181L40.2371 99.5329L40.2311 99.5407C40.2234 99.5511 40.2182 99.5598 40.2139 99.5676C40.2062 99.5832 40.2045 99.5945 40.2088 99.6023C40.2165 99.6179 40.2448 99.6205 40.2808 99.6196L40.2928 99.5971C40.2302 99.6379 40.1094 99.7237 40.1008 99.7498C40.1857 99.7099 40.0674 99.8842 40.3742 99.5893C40.2928 99.6882 40.345 99.6838 40.3836 99.6726C40.423 99.663 40.447 99.6491 40.3562 99.8122C40.4256 99.7081 40.4436 99.6986 40.4924 99.6309C40.5001 99.6387 40.4736 99.7038 40.4633 99.7515C40.4521 99.7975 40.4573 99.8244 40.513 99.7298C40.4873 99.7966 40.4084 99.9302 40.411 99.958C40.4384 99.9181 40.4864 99.7957 40.5233 99.7324C40.5867 99.6327 40.5661 99.7038 40.5507 99.8183C40.5327 99.9293 40.519 100.084 40.5455 100.069C40.6089 99.9554 40.6329 99.9406 40.6578 99.9649C40.6826 99.9866 40.7066 100.05 40.7298 100.046L40.7323 100.197C40.734 99.9085 40.7409 100.032 40.7555 100.125C40.7683 100.223 40.7872 100.281 40.7597 99.8651C40.7726 99.9918 40.7752 99.9111 40.7974 100.178C40.7863 99.984 40.8009 100.059 40.8197 100.113C40.8377 100.169 40.8617 100.2 40.8334 99.9753C40.83 99.9692 40.8334 99.9953 40.8403 100.05C40.8729 100.171 40.8806 100.127 40.884 100.085C40.8883 100.042 40.8891 100 40.9285 100.091C40.9397 100.144 40.944 100.185 40.9714 100.296C41.0048 100.392 40.9817 100.264 40.9654 100.182C40.95 100.099 40.9423 100.059 41.0228 100.305C41.0288 100.289 40.9491 100.048 40.9508 100.067C41.0074 100.122 41.0305 100.036 41.0279 99.9354C41.0262 99.833 40.998 99.7159 40.9868 99.65C41.0776 99.7272 41.1967 99.8513 41.2644 99.9319C41.3321 100.013 41.3561 100.04 41.273 99.8938C41.3304 99.9458 41.1668 99.7758 41.2259 99.8365C41.1925 99.7845 41.2773 99.8573 41.357 99.9181C41.4358 99.9788 41.5078 100.027 41.4367 99.9467C41.2473 99.7888 41.3407 99.8417 41.2276 99.7437C41.3741 99.8053 41.566 99.912 41.4444 99.7602L41.5472 99.8356C41.3098 99.5338 41.5498 99.5155 41.2559 99.1998C41.5609 98.5717 41.7228 97.8846 42.0467 97.2886C42.476 96.7716 42.6731 96.1175 43.2301 95.6733C43.5976 95.728 43.5968 95.7132 43.5779 95.4912C43.6199 95.5276 43.6251 95.5441 43.6739 95.5632C43.4486 95.4018 43.7193 95.446 43.5094 95.2847C43.6885 95.1034 43.7536 94.8683 43.8933 94.6505C43.8958 94.7017 44.0723 94.8457 44.0843 94.7954L43.9661 94.654L44.0346 94.6904C44.0192 94.6393 43.9258 94.5326 43.8333 94.5117C43.9944 93.8351 44.8092 93.6165 45.1109 93.0491C45.2917 92.9893 45.3268 92.7507 45.3739 92.5815C45.954 92.3889 46.4467 92.2042 46.5341 91.6403C46.5341 91.6403 47.0696 92.1226 47.0842 92.3855L47.0936 92.3803Z" fill="#FFD21F"/>
<path d="M37.3083 94.1387C37.1781 94.1882 37.1189 94.2602 36.9296 94.2628C37.0538 94.2255 37.1875 94.163 37.3083 94.1387Z" fill="#FFD21F"/>
<path d="M36.365 95.9917C36.4044 95.9804 36.3187 96.0299 36.299 96.042C36.2827 96.0273 36.167 96.0464 36.2296 96.0091C36.2467 96.0238 36.3067 96.0013 36.3641 95.9917H36.365Z" fill="#FFD21F"/>
<path d="M36.4104 96.396C36.293 96.4307 36.1739 96.3804 36.1448 96.337L36.4104 96.396Z" fill="#FFD21F"/>
<path d="M36.0565 96.9156C35.9691 96.9815 35.9116 96.9928 35.9022 96.9494C35.9605 96.9252 35.9973 96.9278 36.0565 96.9156Z" fill="#FFD21F"/>
<path d="M36.3272 96.8471C36.3401 96.8757 36.2767 96.9147 36.215 96.9529C36.3161 96.9156 36.1293 96.9069 36.3272 96.8471Z" fill="#FFD21F"/>
<path d="M36.2707 97.7363C36.2869 97.751 36.3975 97.7536 36.2767 97.8204C36.3581 97.7666 36.0967 97.7875 36.2707 97.7363Z" fill="#FFD21F"/>
<path d="M36.5817 98.02C36.58 98.0338 36.5594 98.0477 36.5971 98.0477C36.5534 98.0893 36.4609 98.1015 36.4446 98.0876L36.5817 98.02Z" fill="#FFD21F"/>
<path d="M41.2807 103.677L41.2619 103.825L41.243 103.621L41.2807 103.677Z" fill="#FFD21F"/>
<path d="M43.3766 100.247C43.3312 100.171 43.488 100.287 43.506 100.291C43.4974 100.328 43.3852 100.197 43.3766 100.247Z" fill="#FFD21F"/>
<path d="M43.691 98.609L43.6876 98.6203L43.4794 98.4789L43.691 98.609Z" fill="#FFD21F"/>
<path d="M59.9746 94.0546C59.9027 93.9912 59.7767 94.1457 59.8692 94.0277C59.9704 94.0147 60.0449 94.0121 59.9746 94.0546Z" fill="#FFD21F"/>
<path d="M69.8122 92.3803C70.179 92.9693 69.4601 92.8669 69.6315 93.338C69.6349 93.3805 69.3487 93.1272 69.3735 93.2365C69.6272 93.7518 69.1413 93.934 68.6366 93.9921L68.5655 93.9184C68.4721 93.9314 68.6983 94.1829 68.6229 94.2124C68.5681 94.1751 68.5587 94.1413 68.4756 94.1031C68.6289 94.2298 68.4833 94.2567 68.5887 94.3643C68.509 94.3417 68.3822 94.2506 68.2905 94.2298L68.4541 94.3894C68.8406 94.785 68.2802 94.5863 68.4284 94.8657C68.389 94.8301 68.3633 94.7945 68.3136 94.7755C68.4541 95.1563 68.2408 95.3662 68.1962 95.6525C68.1345 95.5979 68.0206 95.5094 67.9366 95.4703C68.1268 95.6152 68.132 95.7167 68.1328 95.8017C67.9117 95.6907 68.2519 96.0281 68.0943 96.0212L68.0523 95.9848C68.2322 96.18 67.88 95.9778 68.1088 96.1912L67.9272 96.1158C68.2005 96.3318 67.7301 96.0889 67.8475 96.2294L67.9083 96.2684C67.952 96.3552 67.7926 96.278 67.8183 96.3483L67.7815 96.3292C67.8012 96.4671 67.6084 96.4099 67.8346 96.5582C67.6333 96.4671 67.8072 96.4194 67.515 96.2919C67.5587 96.73 67.3239 96.9937 67.1423 97.2826C67.0309 97.2548 66.9898 97.2574 66.8998 97.208C66.9264 97.2669 66.8707 97.3433 66.9692 97.4457C66.9709 97.4326 66.8415 97.3875 66.8193 97.3945C66.7019 97.391 67.0309 97.6166 66.8912 97.6061C66.8467 97.5445 66.7798 97.4882 66.6907 97.4404C66.8338 97.6053 66.7636 97.6521 66.7833 97.7475C66.7516 97.7137 66.7387 97.6851 66.665 97.64C66.8235 97.8352 66.5502 97.7285 66.6402 97.8673L66.5236 97.7606C66.3077 97.7458 66.779 97.967 66.6359 97.9818C66.6068 97.9358 66.5502 97.908 66.4996 97.8699C66.6899 98.098 66.5365 98.1631 66.5716 98.288C66.5562 98.2715 66.5202 98.2498 66.5202 98.2498C66.4996 98.347 66.3737 98.3808 66.4217 98.5352C66.3428 98.5283 66.1106 98.3158 66.1038 98.4303C66.3677 98.5994 66.1226 98.6428 66.4499 98.7877C66.3617 98.8302 66.1903 98.877 66.2503 98.9837C66.1706 98.8866 65.9067 98.8085 65.9238 98.7356L65.7345 98.6749C65.6325 98.5986 65.8013 98.6532 65.6574 98.5795C65.6496 98.6159 65.6968 98.7695 65.6385 98.7686C65.7636 98.9282 66.0318 99.1746 66.0087 99.2848C65.9333 99.1763 65.7045 99.12 65.6779 99.0627L66.1021 99.5138C66.0961 99.5511 65.8896 99.3845 65.9324 99.4722C66.0035 99.5155 66.0327 99.5606 66.0815 99.611C66.0455 99.6031 66.0695 99.7767 65.8039 99.6214C65.6933 99.5684 65.7807 99.5381 65.6676 99.5112C65.6359 99.5676 65.7225 99.6274 65.6916 99.6838L65.6565 99.6621C65.5957 99.6734 65.6993 99.84 65.8673 99.8938C65.8913 99.8738 65.7062 99.8027 65.803 99.8131C65.9367 99.9354 65.9401 100.027 65.9084 100.084C65.8784 100.039 65.8082 99.9961 65.7396 99.9406C65.8964 100.145 65.9118 100.265 65.9444 100.4C66.0678 100.482 65.7405 100.226 65.8133 100.256C65.576 100.249 65.9196 100.629 65.6128 100.554C65.5999 100.526 65.7936 100.66 65.7585 100.638C65.7113 100.679 65.534 100.561 65.5794 100.636C65.5263 100.604 65.528 100.621 65.5451 100.651C65.5588 100.687 65.5837 100.741 65.5845 100.776C65.6419 100.852 65.528 100.753 65.5408 100.705C65.5648 100.767 65.5734 100.895 65.5408 101.02C65.5091 101.143 65.4389 101.261 65.3249 101.273C65.3883 101.329 65.4748 101.605 65.4423 101.642L65.3198 101.473C65.2195 101.413 65.2521 101.613 65.139 101.48C65.1912 101.618 65.2066 101.5 65.2126 101.383C65.2178 101.267 65.2126 101.155 65.2444 101.274C65.1801 101.225 65.2126 101.32 65.2366 101.401C65.2615 101.483 65.2803 101.551 65.1989 101.431C65.1792 101.47 65.1938 101.552 65.1921 101.618C65.1904 101.682 65.1732 101.729 65.0953 101.684C65.1287 101.69 64.9616 101.388 64.9376 101.456C64.8982 101.582 64.9779 101.566 64.9659 101.708L64.9804 101.836C65.0867 102.019 64.9059 101.906 65.0516 102.071C64.9573 101.931 65.0044 102.334 64.8433 102.002L64.7191 101.734C64.7045 101.792 64.8142 102.071 64.8476 102.226C64.8322 102.208 64.7996 102.168 64.7808 102.121C64.875 102.328 64.8536 102.35 64.8236 102.364C64.7928 102.379 64.7551 102.385 64.8065 102.58C64.7439 102.558 64.7037 102.619 64.6617 102.658C64.6197 102.697 64.5769 102.712 64.5152 102.587C64.5169 102.8 64.5229 103.055 64.4398 103.038C64.4372 102.971 64.4483 102.934 64.4218 102.822C64.3498 102.729 64.3781 102.872 64.3686 103.006C64.3549 102.919 64.229 102.809 64.1596 102.671C64.1536 102.899 64.2247 103.172 64.2573 103.359C64.1818 103.124 64.1699 103.261 64.1519 103.415C64.1347 103.567 64.1124 103.738 64.0482 103.517C64.0533 103.407 64.0696 103.13 64.0122 103.044C63.9505 102.787 63.9505 102.92 63.9479 103.104C63.9462 103.286 63.9419 103.52 63.8948 103.426L63.9668 103.902C63.9334 103.772 63.9179 103.886 63.9017 103.971C63.8854 104.055 63.8717 104.107 63.8511 103.837C63.8442 104.063 63.7594 103.791 63.8048 104.296C63.762 104.225 63.7234 104.254 63.6857 104.315C63.6377 104.294 63.5898 104.314 63.5452 104.256C63.4955 104.158 63.451 103.992 63.4261 103.663C63.4081 103.721 63.3653 103.59 63.3704 103.837C63.3978 104.131 63.415 103.701 63.4244 103.893C63.4081 103.888 63.403 104.009 63.4013 104.072C63.3601 103.916 63.3327 103.848 63.3747 103.51C63.337 103.32 63.313 103.49 63.2787 103.662C63.2462 103.836 63.2042 104.011 63.1485 103.853C63.1656 103.676 63.1613 103.601 63.1262 103.589C63.0979 103.666 63.0679 103.74 63.0362 103.814C62.9651 103.651 63.0345 103.366 63.0602 103.071C63.0217 103.079 62.9823 103.012 62.9386 103.205C62.9394 103.067 62.942 102.931 62.9454 102.796C62.9386 103.091 62.8931 102.931 62.8666 102.979L62.8931 102.931C62.9051 102.802 62.8563 102.827 62.8297 102.835C62.804 103.012 62.8349 103.136 62.852 103.214C62.8143 103.315 62.7895 103.247 62.738 103.358C62.7929 103.099 62.7115 103.091 62.6866 103.027C62.6661 102.927 62.5984 103.212 62.5898 103.189C62.6189 103.052 62.5375 103.095 62.6069 102.943C62.6275 102.914 62.6044 103.106 62.6498 103.012C62.6498 102.881 62.7055 102.652 62.6224 102.768C62.5581 102.851 62.511 103.282 62.481 103.036C62.5153 102.994 62.5435 102.899 62.5795 102.823C62.5701 102.755 62.5607 102.686 62.5538 102.619L62.4904 102.842C62.4981 102.773 62.5084 102.761 62.5136 102.726C62.4304 102.939 62.403 102.675 62.307 102.917C62.2659 102.897 62.2882 102.677 62.2676 102.613L62.2796 102.604C62.2891 102.429 62.2145 102.453 62.1263 102.548L62.146 102.506C62.1323 102.463 62.0731 102.434 61.9934 102.515C62.0097 102.295 62.3225 101.748 62.1554 101.928C62.1117 101.873 61.9052 102.168 61.8615 102.318C61.8495 102.185 61.7784 102.157 61.7158 102.106C61.6541 102.056 61.6019 101.984 61.6524 101.793C61.5924 101.838 61.571 101.893 61.5136 101.89C61.4708 101.754 61.3602 101.693 61.2805 101.598C61.2043 101.501 61.1537 101.376 61.248 101.172C61.3422 101.179 61.3936 101.05 61.4759 100.98C61.32 101.043 61.5821 100.813 61.3482 100.981C61.2171 101.094 61.1486 101.14 61.1314 101.246C60.9866 101.177 60.865 100.963 60.9618 100.81C60.9155 100.887 60.8555 100.888 60.7947 100.884C60.9138 100.819 60.9678 100.756 60.9789 100.71C60.9841 100.687 60.9789 100.667 60.9626 100.651C60.9549 100.643 60.9447 100.636 60.9335 100.632C60.9232 100.629 60.9112 100.628 60.8975 100.627L60.7493 100.698L60.8812 100.586C60.8255 100.592 60.5676 100.728 60.6816 100.605C60.7364 100.573 60.7938 100.538 60.829 100.508C60.6842 100.521 60.446 100.555 60.5402 100.435L60.7313 100.278C60.697 100.267 60.5479 100.293 60.5059 100.367C60.5865 100.206 60.5719 100.138 60.7433 100.013C60.2112 100.081 60.0775 99.8469 60.0192 99.6396L60.1324 99.5927C60.2129 99.4921 59.925 99.6587 59.985 99.5858C60.1006 99.5511 60.1983 99.4375 60.3483 99.4158C60.4305 99.2882 60.1109 99.4132 60.0381 99.3889C59.8899 99.4496 60.1495 99.3837 59.9584 99.4617C59.9027 99.4774 60.0278 99.3056 59.8007 99.3967C59.8804 99.3377 60.0492 99.277 60.1443 99.2449L60.0158 99.2501C60.2523 99.0757 60.5351 99.1607 60.8298 98.9551L60.7767 98.9308C60.9926 98.7851 61.0869 98.9152 61.1237 98.7773C60.9935 98.7851 60.6533 98.8953 60.5736 98.9794C60.4708 98.9152 60.0218 99.1798 59.997 99.0696C60.1144 98.9837 60.0638 99.1364 60.2386 99.0341C60.3971 98.9057 60.0955 98.9855 60.1401 98.9143C60.0758 98.9994 59.8324 99.061 59.7793 99.0479C59.8624 98.949 60.0055 98.9872 59.997 98.9031C59.8624 98.949 59.7339 98.9248 59.6714 99.0228C59.3663 99.126 59.7176 98.91 59.4734 98.9707C59.6688 98.8562 59.9824 98.8363 60.051 98.7105C59.8582 98.8102 59.7391 98.7296 59.4614 98.9013C59.5051 98.8441 59.6611 98.7729 59.793 98.7426C59.8976 98.6437 59.3826 98.7903 59.7716 98.6046L59.5608 98.6766C59.6217 98.6341 59.6628 98.5916 59.7639 98.5214C59.751 98.4806 59.4332 98.5101 59.7433 98.3834C59.7065 98.3834 59.6808 98.288 59.482 98.4129C59.3757 98.5248 59.6662 98.4121 59.3912 98.5656C59.6088 98.4259 59.3269 98.4962 59.2327 98.4962L59.35 98.4407C59.2952 98.4407 59.3021 98.3843 59.1675 98.4259C59.2421 98.4129 59.3209 98.3704 59.3423 98.3435L59.1513 98.3982C59.0296 98.3548 59.464 98.2464 59.3817 98.19H59.5454C59.5103 98.19 59.6714 98.0937 59.5985 98.0807C59.428 98.1336 59.2172 98.1882 59.081 98.229C58.9902 98.2143 59.2626 98.1319 59.0724 98.1587L59.2961 98.1336C59.3543 98.1197 59.5565 97.9835 59.5291 97.9271C59.4563 97.9132 59.1924 97.9514 59.1255 98.0477C59.1101 98.0199 59.1975 97.9367 59.3278 97.9115C59.2438 97.8681 59.1521 97.9922 59.0253 97.9757C59.1264 97.908 59.2575 97.771 59.4032 97.6625L59.7074 97.6113L59.6928 97.5714C59.9378 97.5333 59.8547 97.4778 60.1024 97.4136C60.1298 97.3719 60.0355 97.3719 59.9653 97.3702C59.614 97.5983 59.4109 97.4847 59.0733 97.6417C58.937 97.5671 59.8916 97.2487 59.3063 97.3424C59.2232 97.3953 58.9396 97.4422 59.0656 97.4734C59.0784 97.3901 58.7005 97.5593 58.8119 97.4231C58.9782 97.4283 59.141 97.2262 59.3817 97.2331C59.2626 97.2713 59.3106 97.3147 59.3475 97.3155C59.4709 97.2366 59.6996 97.188 59.6748 97.1195C59.6268 97.09 59.5985 97.0345 59.4212 97.1108C59.2224 97.1871 59.4657 97.1672 59.2532 97.2166C59.153 97.1576 59.4511 97.031 59.0836 97.1273C59.1324 97.1698 58.9319 97.26 58.7957 97.3103L58.6885 97.2782L58.8265 97.2409C58.8831 97.1047 58.5729 97.3008 58.5729 97.1889L58.8188 97.0466C59.0536 96.9867 58.77 97.2262 59.1324 97.0726C59.123 97.005 58.9276 97.0518 59.0039 96.9572C59.0399 96.959 59.0544 96.9746 59.093 96.9755C59.0956 96.9486 59.578 96.7482 59.2601 96.7621C59.1315 96.756 59.1238 96.7976 58.9859 96.8453C58.9088 96.7586 58.7571 96.7777 58.7125 96.7187C58.9867 96.6371 58.6988 96.5929 59.0004 96.5686C58.8539 96.6571 58.9199 96.8011 59.1907 96.7438C59.4974 96.592 59.1727 96.8401 59.5026 96.7447C59.482 96.6614 59.7973 96.5521 60.0004 96.4654C60.0072 96.4385 59.9121 96.448 59.8753 96.4463C59.6774 96.5061 59.6902 96.5339 59.4914 96.6076C59.5128 96.4992 59.3749 96.4515 59.1692 96.4671C59.2541 96.4038 59.4512 96.3456 59.482 96.3751C59.3869 96.2893 59.3775 96.1643 59.4023 96.0429C59.105 96.2164 59.2909 95.9535 59.0399 96.0871C58.9867 96.1661 58.7768 96.2901 58.6226 96.3075C58.632 96.265 58.7622 96.2615 58.8265 96.2242C58.6371 96.2381 59.0836 96.062 58.7939 96.1106C58.9293 96.1765 59.1881 96.0004 59.4443 95.9362C59.2806 95.9128 59.6225 95.8807 59.5994 95.8113C59.4392 95.787 59.3003 95.7367 59.2215 95.6751C59.4306 95.4998 59.1504 95.4217 59.1127 95.335C59.2258 95.25 59.5206 95.1945 59.5548 95.1303C59.5317 95.0739 59.2601 95.2665 59.3646 95.1398L59.4246 95.1311C59.3483 95.1251 59.5728 94.9151 59.1547 95.008L59.4726 94.9455C59.4966 94.9212 59.4203 94.9264 59.3843 94.9229C59.4846 94.8934 59.5711 94.8483 59.6439 94.8553C59.8436 94.7408 59.5788 94.7538 59.554 94.6982L59.3809 94.7867C59.2095 94.726 59.3715 94.6098 59.2841 94.5282L59.4649 94.484L59.3423 94.4545C59.5197 94.4233 59.6217 94.3408 59.4657 94.3486C59.6259 94.3608 59.7853 94.3712 59.9447 94.3807C59.8479 94.4501 59.7151 94.3946 59.5445 94.4666C59.3946 94.5299 59.4657 94.6072 59.6439 94.5733C59.6542 94.5343 59.614 94.5438 59.542 94.5343C59.7905 94.4553 59.7939 94.5091 59.9695 94.4883C59.9524 94.4744 60.0218 94.4285 59.9421 94.4467C60.0741 94.4467 60.1024 94.4762 60.1238 94.5308C60.015 94.5195 59.9755 94.595 59.9001 94.6002C60.1204 94.5438 60.2035 94.5785 60.1615 94.6653C59.9224 94.7885 60.362 94.7486 60.314 94.8492C60.0827 94.883 59.8933 94.8926 59.7896 94.8683C59.6936 94.9524 59.8119 94.9238 59.7142 95.0097C59.889 94.9854 60.1478 94.9273 60.266 94.9628L60.1032 95.0158C60.2043 95.0505 60.4468 94.9767 60.4254 95.0661C60.3826 95.2214 60.4237 95.3558 60.4365 95.4617L60.2763 95.5181C60.6422 95.4591 60.4648 95.6594 60.6413 95.6829C60.5256 95.8624 60.8872 95.9015 60.631 96.0628C60.7313 96.1522 60.8281 96.2337 60.9027 96.324C60.9789 96.4142 61.0329 96.5122 61.0458 96.6363L60.799 96.6857C60.9849 96.6623 60.6756 96.7629 60.7253 96.7898C60.8924 96.6736 60.9866 96.7542 61.1392 96.7274C60.9944 96.8983 61.2403 96.952 61.4373 96.9755L61.2797 97.0423C61.6121 97.0128 61.3928 97.2227 61.3885 97.3554C61.3294 97.3945 61.1897 97.476 61.2188 97.502C61.4973 97.4569 61.493 97.496 61.6884 97.5168C61.715 97.5801 61.697 97.7094 61.6241 97.8178C62.0774 97.9046 61.9617 98.2429 62.2822 98.3912L62.1074 98.4945C62.355 98.5222 62.427 98.6454 62.4716 98.7781C62.517 98.91 62.535 99.0523 62.6841 99.0983L62.3696 99.2353C62.3062 99.3464 62.5204 99.336 62.7286 99.2076C62.6678 99.3177 62.954 99.2813 62.7235 99.4531C62.6995 99.5459 62.9026 99.4548 62.9694 99.4843C62.9668 99.4956 62.9634 99.5069 62.9608 99.5173L62.9574 99.5329L62.9514 99.5407C62.9437 99.5511 62.9386 99.5598 62.9343 99.5676C62.9266 99.5832 62.9248 99.5945 62.9291 99.6023C62.9368 99.6179 62.9651 99.6205 63.0011 99.6196L63.0131 99.5971C62.9506 99.6378 62.8297 99.7229 62.8212 99.7498C62.906 99.7099 62.7877 99.8842 63.0945 99.5893C63.0131 99.6882 63.0654 99.6838 63.1039 99.6725C63.1433 99.663 63.1673 99.6491 63.0765 99.8122C63.1459 99.7081 63.1648 99.6986 63.2127 99.6309C63.2205 99.6387 63.1939 99.7038 63.1836 99.7515C63.1725 99.7975 63.1776 99.8244 63.2333 99.7298C63.2076 99.7966 63.1288 99.9302 63.1313 99.9571C63.1588 99.9172 63.2068 99.7957 63.2436 99.7315C63.307 99.6318 63.2864 99.7029 63.271 99.8174C63.253 99.9285 63.2393 100.083 63.2659 100.068C63.3293 99.9545 63.3533 99.9397 63.3781 99.964C63.403 99.9857 63.427 100.049 63.4501 100.045L63.4527 100.197C63.4544 99.9076 63.4612 100.031 63.4758 100.124C63.4887 100.221 63.5075 100.279 63.4801 99.8634C63.4929 99.9901 63.4955 99.9094 63.5178 100.177C63.5066 99.9823 63.5212 100.058 63.5401 100.112C63.5581 100.167 63.5821 100.198 63.5538 99.9736C63.5503 99.9675 63.5538 99.9935 63.5606 100.048C63.5932 100.169 63.6009 100.125 63.6043 100.084C63.6086 100.04 63.6095 99.9987 63.6489 100.089C63.66 100.142 63.6643 100.184 63.6917 100.295C63.7251 100.39 63.702 100.262 63.6857 100.18C63.6703 100.097 63.6626 100.057 63.7431 100.303C63.7491 100.288 63.6695 100.046 63.6712 100.066C63.7277 100.12 63.7509 100.034 63.7483 99.9337C63.7466 99.8313 63.7183 99.7142 63.7072 99.6483C63.798 99.7255 63.9171 99.8495 63.9848 99.9302C64.0525 100.012 64.0765 100.038 63.9933 99.892C64.0508 99.9441 63.8871 99.774 63.9462 99.8348C63.9128 99.7827 63.9976 99.8556 64.0773 99.9163C64.1561 99.977 64.2281 100.026 64.157 99.9449C63.9676 99.7871 64.061 99.84 63.9479 99.742C64.0945 99.8035 64.2864 99.9102 64.1647 99.7584L64.2675 99.8339C64.0302 99.532 64.2701 99.5138 63.9762 99.198C64.2812 98.5699 64.4432 97.8829 64.7671 97.286C65.1964 96.769 65.3934 96.1149 65.9504 95.6699C66.318 95.7245 66.3171 95.7098 66.2983 95.4877C66.3403 95.5241 66.3454 95.5406 66.3942 95.5597C66.1689 95.3983 66.4397 95.4426 66.2297 95.2812C66.4088 95.0999 66.4739 94.8648 66.6136 94.6471C66.6162 94.6983 66.7927 94.8423 66.8047 94.7919L66.6864 94.6505L66.755 94.687C66.7396 94.6358 66.6462 94.5291 66.5536 94.5083C66.7147 93.8316 67.5296 93.613 67.8312 93.0456C68.012 92.9858 68.0471 92.7472 68.0943 92.5781C68.6743 92.3855 69.167 92.1998 69.2544 91.6368C69.2544 91.6368 69.79 92.1191 69.8045 92.382L69.8122 92.3803Z" fill="#FFD21F"/>
<path d="M60.0244 94.1387C59.8941 94.1882 59.8359 94.2602 59.6456 94.2628C59.7699 94.2255 59.9035 94.163 60.0244 94.1387Z" fill="#FFD21F"/>
<path d="M59.0827 95.9917C59.1222 95.9804 59.0365 96.0299 59.0168 96.042C59.0005 96.0273 58.8848 96.0464 58.9474 96.0099C58.9645 96.0247 59.0245 96.0021 59.0819 95.9926L59.0827 95.9917Z" fill="#FFD21F"/>
<path d="M59.1273 96.396C59.0099 96.4307 58.8908 96.3812 58.8617 96.337L59.1273 96.396Z" fill="#FFD21F"/>
<path d="M58.7742 96.9165C58.6868 96.9824 58.6294 96.9937 58.62 96.9503C58.6783 96.926 58.7151 96.9286 58.7742 96.9165Z" fill="#FFD21F"/>
<path d="M59.045 96.8471C59.0578 96.8757 58.9944 96.9147 58.9327 96.9529C59.0338 96.9156 58.8471 96.9069 59.045 96.8471Z" fill="#FFD21F"/>
<path d="M58.9884 97.7363C59.0047 97.751 59.1153 97.7536 58.9944 97.8204C59.0758 97.7666 58.8145 97.7875 58.9884 97.7363Z" fill="#FFD21F"/>
<path d="M59.2994 98.02C59.2977 98.0338 59.2772 98.0477 59.3149 98.0477C59.2712 98.0893 59.1786 98.1015 59.1624 98.0876L59.2994 98.02Z" fill="#FFD21F"/>
<path d="M63.9985 103.677L63.9797 103.825L63.9608 103.621L63.9985 103.677Z" fill="#FFD21F"/>
<path d="M66.0953 100.247C66.0498 100.171 66.2066 100.287 66.2246 100.291C66.2161 100.328 66.1038 100.197 66.0953 100.247Z" fill="#FFD21F"/>
<path d="M66.4096 98.609L66.4054 98.6203L66.1971 98.4789L66.4096 98.609Z" fill="#FFD21F"/>
<path fill-rule="evenodd" clip-rule="evenodd" d="M12.1134 54.8674C9.21034 54.7616 7.24129 51.5275 5.65782 49.2511C-0.580089 40.2759 -2.66825 27.1904 4.62017 16.7733C10.984 7.6792 20.8019 4.12154 30.2641 4.73053C30.738 5.39244 29.9394 5.07493 29.6223 5.58763C11.8777 3.63226 -5.12828 23.7854 3.45913 41.4991C5.82748 46.3866 10.14 48.5623 12.1134 54.8683V54.8674Z" fill="#FFD21F"/>
<path d="M6.10851 81.4262C5.86002 81.4731 6.19848 81.7394 5.93542 81.5399C5.98598 81.4037 6.04596 81.3074 6.10851 81.4262Z" fill="#FFD21F"/>
<path d="M47.3121 90.8257C47.2162 90.2436 47.5349 89.8975 47.8837 89.5964C48.2358 89.2919 48.6266 89.0213 48.7379 88.5146C48.7842 88.4166 49.0558 88.8877 49.139 88.6465C49.1989 88.1052 49.5434 87.6827 50.0087 87.3635C50.4739 87.0442 51.06 86.8282 51.6127 86.6877L51.6607 86.8334C51.8672 86.7761 51.7387 86.2773 51.9323 86.1862C51.9949 86.2548 51.97 86.3268 52.0883 86.3892C51.9435 86.1481 52.2768 86.0448 52.2048 85.8332C52.3367 85.8601 52.4756 86.0284 52.6332 86.0492L52.5124 85.7369C52.2545 84.9552 53.1311 85.2415 53.2022 84.6534C53.2347 84.7228 53.2407 84.7948 53.3144 84.8251C53.3701 84.6195 53.4567 84.4321 53.5629 84.2552C53.67 84.0773 53.79 83.916 53.9116 83.765C54.1541 83.464 54.4249 83.1829 54.5894 82.9097C54.7 82.9617 54.9047 83.0459 55.0813 83.0493C54.7428 82.9201 54.7993 82.7422 54.849 82.6017C55.0992 82.6 55.0633 82.5236 55.0007 82.4473C54.9399 82.3675 54.8456 82.2937 55.0538 82.2209L55.1524 82.233C54.9467 82.1783 55.0564 82.1419 55.1584 82.0994C55.2586 82.0595 55.3512 82.0144 55.0564 81.997C55.2183 81.9641 55.382 81.9276 55.5491 81.8886C55.1875 81.9007 55.3203 81.8556 55.5157 81.788C55.7093 81.7229 55.9698 81.6301 55.8062 81.6119L55.6314 81.6431C55.5705 81.6136 55.6536 81.5711 55.7453 81.5234C55.837 81.4765 55.9372 81.4253 55.897 81.395L56.0067 81.3638C55.9732 81.2796 56.0915 81.1746 56.13 81.1044C56.1695 81.035 56.1215 81.0107 55.7667 81.12C56.0598 80.9899 56.1206 81.0332 56.1917 81.0627C56.2286 81.0775 56.2714 81.0879 56.3605 81.0731C56.4051 81.0662 56.4616 81.0523 56.5345 81.0289C56.5713 81.0167 56.6116 81.0029 56.6579 80.9855C56.6784 80.9777 56.7033 80.9682 56.7307 80.9578C56.7521 80.9491 56.7615 80.9421 56.7795 80.9335C56.7795 80.8936 56.7898 80.8493 56.7581 80.8112C56.7358 80.7712 56.6904 80.727 56.6236 80.7071C56.4994 80.6567 56.3794 80.6134 56.262 80.5761C56.0272 80.5006 55.8096 80.4433 55.6065 80.3947C55.2809 80.3167 54.9913 80.2551 54.7085 80.1996C54.4266 80.1449 54.1498 80.0981 53.8671 80.0686C53.8782 79.9905 53.8731 79.9376 53.8757 79.8881C53.8774 79.8395 53.8911 79.7884 53.9262 79.7242C53.7711 79.7805 53.4841 79.7537 53.2904 79.9367C53.3281 79.9315 53.3358 79.7432 53.2887 79.719C53.2287 79.6443 53.1251 79.7424 53.0308 79.8395C52.9348 79.9358 52.8509 80.0287 52.79 79.9393C52.8988 79.8447 52.9785 79.7259 53.0025 79.588C52.8551 79.725 52.7378 79.7849 52.6255 79.817C52.5141 79.85 52.4079 79.8595 52.3059 79.9046C52.3445 79.8421 52.3984 79.8083 52.4121 79.6869C52.2716 79.85 52.1842 79.8326 52.0883 79.7979C51.9957 79.7641 51.8955 79.7164 51.7969 79.8205L51.8723 79.6036C51.551 79.3372 51.7764 80.059 51.5013 79.9029C51.5673 79.8335 51.5433 79.7458 51.5553 79.6574C51.2991 80.0538 50.8835 79.9306 50.6299 80.0746C50.6445 80.0443 50.6385 79.9844 50.6385 79.9844C50.3608 80.0417 50.0635 79.9298 49.7636 80.1163C49.6471 80.0243 49.7756 79.5836 49.4817 79.6764C49.5143 80.1137 48.9882 79.8864 49.1904 80.3705C48.9359 80.3141 48.5255 80.1735 48.3678 80.3366C48.4698 80.1623 48.2067 79.8109 48.4158 79.7606L48.2375 79.5047C48.2487 79.326 48.4072 79.555 48.3404 79.3346C48.235 79.3598 47.9376 79.5541 47.8383 79.4925C47.6617 79.7745 47.5229 80.288 47.2136 80.3713C47.3473 80.1883 47.0877 79.8985 47.1819 79.8152L46.816 80.6897C46.7141 80.7201 46.762 80.3462 46.6207 80.4754C46.6395 80.5899 46.5795 80.6654 46.5427 80.7643C46.4981 80.7201 46.1203 80.9161 46.032 80.4936C45.9686 80.3288 46.194 80.3869 46.062 80.2455C45.8692 80.2698 45.8752 80.4173 45.6824 80.4433L45.673 80.3861C45.5385 80.3366 45.3165 80.6099 45.4802 80.832C45.5702 80.8363 45.4193 80.5778 45.5633 80.6862C45.4999 80.9439 45.284 81.041 45.0929 81.0671C45.1512 80.9907 45.1306 80.8779 45.1434 80.753C44.9215 81.1191 44.661 81.2562 44.3894 81.4297C44.4091 81.6361 44.4537 81.0488 44.5085 81.1512C44.1041 80.9118 43.7948 81.6448 43.4357 81.2701C43.482 81.2284 43.4991 81.5563 43.4889 81.5C43.3081 81.4982 43.2781 81.2015 43.177 81.3264C43.1427 81.1573 43.0382 81.4019 42.9259 81.4705C42.8805 81.6023 42.8839 81.3915 42.985 81.3568C42.8376 81.5268 42.2113 81.8834 41.7931 81.6882C41.8171 81.8018 41.6183 82.1402 41.5292 82.1419L41.5249 81.8704C41.4213 81.7203 41.2345 81.9372 41.1856 81.7099C41.0451 82.063 41.8694 81.3273 41.6518 81.6136C41.5532 81.4011 41.3596 82.0933 41.3613 81.7194C41.1856 81.7567 41.0614 82.0812 40.854 81.8608C40.9106 81.8964 40.9423 81.467 40.8018 81.5104C40.7315 81.5329 40.6929 81.5529 40.6698 81.572C40.6501 81.5902 40.6441 81.6084 40.6407 81.6275C40.633 81.6665 40.633 81.7099 40.5344 81.7663L40.4179 81.8903C40.4427 82.1488 40.1823 81.8791 40.3159 82.1593C40.2568 81.9493 39.9578 82.3354 39.9303 81.9016L39.9235 81.5572C39.8155 81.5945 39.7855 81.9337 39.717 82.0951C39.6981 82.0656 39.6613 82.0022 39.6596 81.9441C39.705 82.469 39.3888 81.9337 39.304 82.3501C39.0486 82.1966 38.7076 82.4013 38.5602 82.0899C38.3983 82.266 38.2586 82.4742 38.0435 82.3857C38.0778 82.3293 38.1318 82.3111 38.1309 82.1974C37.987 82.0586 37.9707 82.1992 37.8636 82.2963C37.8807 82.2157 37.5748 82.0187 37.4129 81.853C37.2535 82.0291 37.3461 82.3024 37.3469 82.4759C37.1284 81.9806 36.8851 82.8645 36.6306 82.4213C36.6837 82.3423 36.8602 82.1402 36.6991 82.0274C36.4806 81.5321 36.4164 82.4447 36.1285 82.2269L36.2399 82.6442C36.0942 82.3935 35.8843 82.9365 35.862 82.5002C35.7917 82.6633 35.539 82.3935 35.6135 82.8038C35.1465 82.5002 34.5956 83.1369 34.2511 82.4186C34.1971 82.4967 34.0369 82.4429 34.0909 82.6529C34.2185 82.8724 34.2151 82.469 34.2708 82.6242C34.2168 82.6433 34.2177 82.7578 34.2177 82.8168C34.0746 82.737 33.9658 82.7171 34.054 82.3579C33.7301 82.1332 33.8252 83.0996 33.4294 82.9782C33.4277 82.8012 33.3925 82.7414 33.2846 82.7813L33.1063 83.0996C32.8544 83.058 32.9255 82.7205 32.8887 82.4317C32.7636 82.4967 32.6025 82.4993 32.5665 82.724L32.3694 82.3753C32.5134 82.6268 32.2803 82.5635 32.2272 82.6407L32.2812 82.5627C32.2443 82.4386 32.1012 82.5323 32.0284 82.5774C32.0661 82.757 32.2272 82.8134 32.3163 82.855C32.2632 82.9929 32.1561 82.9721 32.0841 83.1343C32.0841 82.8455 31.8502 82.9539 31.7431 82.9357C31.6171 82.8836 31.6351 83.2063 31.5991 83.1994C31.5803 83.0502 31.4021 83.1942 31.4732 82.9773C31.5092 82.9253 31.5811 83.1118 31.6343 82.9747C31.5443 82.8697 31.5263 82.6095 31.3832 82.8177C31.2752 82.9721 31.4723 83.3798 31.2213 83.2228C31.2752 83.143 31.2744 83.0285 31.3112 82.9201L31.0782 82.796L31.0953 83.058C31.0593 82.9947 31.0773 82.9695 31.0602 82.9366C31.0225 83.2168 30.7354 83.0537 30.7174 83.3686C30.6103 83.4085 30.4672 83.2115 30.3593 83.1916L30.3773 83.169C30.2333 83.0268 30.0731 83.1474 29.9822 83.3347V83.2766C29.9103 83.2636 29.7483 83.3217 29.6746 83.4831C29.4776 83.3009 29.5204 82.5002 29.3559 82.8498C29.1768 82.8741 29.1194 83.3556 29.2076 83.5143C28.8675 83.3686 28.5376 83.831 28.2008 83.4527C28.1631 83.5612 28.1991 83.6254 28.1083 83.6982C27.6242 83.6401 27.1263 84.0973 26.7039 83.6158C26.8324 83.4944 26.6911 83.3538 26.6765 83.2046C26.5822 83.4484 26.5197 82.9721 26.5111 83.3755C26.542 83.6132 26.5403 83.7286 26.6816 83.811C26.4074 83.9637 25.973 84.0001 25.7982 83.7902C25.8856 83.8925 25.8299 83.9706 25.7734 84.0487C25.7639 83.667 25.5506 83.6297 25.4015 83.7754L25.3964 84.0062L25.2747 83.778C25.219 83.8561 25.243 84.2621 25.0682 84.0548C25.0528 83.9671 25.0373 83.8743 25.0039 83.8136C24.8531 84.0131 24.6423 84.3463 24.4495 84.1667L24.2799 83.8405C24.2062 83.8813 24.0905 84.0929 24.2319 84.1814C23.9123 84.001 23.7143 83.988 23.5995 83.7034C23.3596 84.0773 23.0469 84.2795 22.717 84.387C22.3871 84.4955 22.0409 84.5085 21.7324 84.4998L21.7427 84.3272C21.5696 84.1745 21.6716 84.6334 21.5508 84.5198C21.5962 84.3506 21.4077 84.1684 21.5276 83.9585C21.2843 83.7919 21.238 84.2769 21.0881 84.3619C21.0744 84.5874 21.2055 84.2109 21.1883 84.4998C21.1661 84.5831 20.8533 84.3358 20.831 84.6785C20.7659 84.5449 20.8019 84.2942 20.8276 84.1528L20.6905 84.3246C20.4986 83.9299 21.0615 83.5959 20.8559 83.1092L20.7265 83.1682C20.586 82.8142 21.0572 82.7509 20.7222 82.6373C20.5868 82.8134 20.484 83.3148 20.6177 83.4597C20.3212 83.5664 20.5114 84.2838 20.1858 84.2647C20.0898 84.0687 20.4437 84.2083 20.37 83.929C20.2072 83.6583 20.0701 84.0955 19.9305 84.0027C20.0856 84.1276 19.9707 84.4781 19.8748 84.5423C19.7043 84.3862 19.9707 84.2153 19.736 84.1866C19.7043 84.3862 19.4935 84.544 19.6846 84.6733C19.6134 85.1253 19.4369 84.5579 19.3195 84.911C19.2347 84.5996 19.5389 84.1728 19.2775 84.0261C19.3272 84.3272 18.9725 84.4504 19.1207 84.8963C19.0171 84.8121 18.9999 84.5735 19.0685 84.3836C18.9202 84.2014 18.7326 84.9474 18.67 84.3454L18.6281 84.6568C18.5801 84.5562 18.5141 84.4816 18.4361 84.3133C18.3093 84.3098 18.0342 84.741 18.0377 84.2716C17.9983 84.3211 17.7078 84.3055 17.8243 84.6282C18.0085 84.8234 18.0283 84.387 18.1371 84.8234C18.0025 84.4686 17.8766 84.8737 17.7738 84.996L17.7541 84.8147C17.6924 84.8867 17.5484 84.8503 17.5116 85.0463C17.5587 84.9422 17.5313 84.8182 17.4816 84.7765L17.419 85.0541C17.1671 85.1938 17.3539 84.5692 17.1088 84.6516L17.2939 84.4356C17.2537 84.4825 17.1671 84.2231 17.0506 84.3142C17.0069 84.5649 16.9238 84.8685 16.8852 85.0672C16.7464 85.1791 16.8218 84.7826 16.6856 85.0437L16.8629 84.7384C16.8895 84.6551 16.7404 84.3254 16.5553 84.3298C16.4379 84.4165 16.2537 84.7791 16.4414 84.9171C16.348 84.9223 16.2177 84.7653 16.2914 84.584C16.0806 84.6698 16.3197 84.8546 16.1372 85.0099C16.0626 84.8425 15.8313 84.6004 15.6933 84.3541L15.8844 83.9333L15.7593 83.9316C15.923 83.5941 15.6788 83.6722 15.7722 83.3174C15.6873 83.2601 15.5836 83.3816 15.5005 83.4718C15.7464 84.047 15.2135 84.2526 15.2803 84.7731C14.9316 84.9136 15.0815 83.5056 14.7105 84.3176C14.7671 84.453 14.5905 84.8477 14.8116 84.6976C14.5974 84.6369 14.6565 85.2207 14.4055 85.0004C14.5974 84.7913 14.2144 84.466 14.4912 84.1623C14.4697 84.3376 14.6394 84.2985 14.6814 84.25C14.5965 84.0487 14.7088 83.7269 14.4903 83.7225C14.3566 83.7668 14.1733 83.7711 14.1938 84.0426C14.1921 84.3411 14.3986 84.0183 14.3061 84.3176C14.0362 84.4131 14.0036 83.9576 13.8794 84.4833C14.049 84.4451 14.0841 84.7531 14.0764 84.957L13.8759 85.0758L13.9196 84.878C13.6069 84.728 13.8168 85.2363 13.5101 85.1739L13.3781 84.7783C13.4612 84.4417 13.8194 84.9422 13.78 84.3896C13.5829 84.3627 13.5083 84.6403 13.3258 84.4903C13.3687 84.4443 13.4261 84.4347 13.4689 84.3853C13.3978 84.3671 13.3515 83.6358 13.0559 84.053C12.9043 84.2153 13.0105 84.2482 12.9994 84.453C12.6789 84.505 12.5744 84.7106 12.367 84.7366C12.427 84.3411 12.0054 84.6776 12.2505 84.2803C12.3439 84.5224 12.8074 84.5119 12.9334 84.1328C12.8357 83.654 13.1802 84.2092 13.2641 83.7312C13.0114 83.7121 13.0405 83.2454 13.0114 82.9357C12.9428 82.9114 12.87 83.0407 12.8263 83.0866C12.7852 83.3755 12.8768 83.3738 12.8708 83.6705C12.5915 83.5828 12.313 83.7373 12.1434 84.0036C12.0551 83.8561 12.0988 83.5724 12.2119 83.5507C11.8726 83.6158 11.5153 83.5534 11.2017 83.4501C11.3808 83.9325 10.8392 83.5395 10.9566 83.9385C11.122 84.053 11.2505 84.3948 11.1434 84.6022C11.0372 84.5649 11.1588 84.3966 11.1203 84.2933C10.9669 84.5423 10.9326 83.8691 10.7724 84.2673C11.0912 84.1337 10.8675 83.6991 10.9472 83.3339C10.7133 83.5291 10.9729 83.0736 10.7553 83.0606C10.5231 83.2489 10.2412 83.4007 9.99095 83.4562C9.71076 83.0788 9.21378 83.3807 8.93702 83.3712C8.8102 83.1725 8.94387 82.7657 8.79564 82.6806C8.61313 82.6728 8.88989 83.1404 8.63797 82.9261L8.67139 82.8446C8.57971 82.9348 8.20612 82.5201 8.06731 83.1083L8.19498 82.6659C8.14871 82.6199 8.09216 82.7205 8.04589 82.7639C8.05788 82.6182 8.01333 82.4802 8.10415 82.3918C7.97134 82.0638 7.7537 82.4004 7.5729 82.3918L7.6603 82.6711C7.32956 82.8429 7.15219 82.5548 6.84458 82.6104L6.88399 82.3518L6.68863 82.4863C6.76146 82.2417 6.62008 82.0578 6.50098 82.259L7.03394 81.6769C7.14276 81.8461 6.85914 81.9745 6.90798 82.2391C6.94997 82.4698 7.23273 82.4343 7.30471 82.1896C7.20274 82.1488 7.1916 82.2052 7.09906 82.2894C7.10592 81.9233 7.26358 81.9571 7.36897 81.7229C7.31242 81.7333 7.2473 81.6145 7.22245 81.7272C7.35012 81.5624 7.4598 81.5494 7.63888 81.5615C7.50264 81.6891 7.68001 81.7923 7.62346 81.8903C7.6723 81.5754 7.85224 81.4974 8.06302 81.6127C8.18384 81.9979 8.50088 81.4115 8.74594 81.539C8.61227 81.8522 8.45461 82.0985 8.28495 82.2156C8.43147 82.39 8.46575 82.2217 8.61312 82.4004C8.71423 82.1645 8.8042 81.8001 9.02613 81.6743L9.0167 81.9138C9.21807 81.8088 9.24805 81.4557 9.48369 81.5416C9.88727 81.696 10.3131 81.7394 10.6276 81.7828L10.6233 82.0213C10.8332 81.5199 11.2231 81.866 11.4733 81.6552C11.8649 81.9077 12.3576 81.4826 12.5461 81.8999C13.2684 81.7377 13.8931 81.5798 14.6274 81.6873L14.4963 82.0335C14.6334 81.7828 14.5786 82.2347 14.7105 82.1844C14.5657 81.9077 14.8973 81.8253 14.9907 81.6119C15.3154 81.886 15.7422 81.5954 16.0318 81.3533L16.0429 81.5928C16.3368 81.1443 16.6864 81.5468 17.0549 81.6101C17.0977 81.7064 17.1663 81.9294 17.2759 81.9025C17.4713 81.513 17.575 81.5399 17.8629 81.2935C18.0754 81.29 18.4215 81.3776 18.6418 81.526C19.0359 81.2484 19.4378 81.179 19.8448 81.1443C20.2518 81.107 20.6639 81.1 21.0718 80.917L21.1446 81.1955C21.5336 80.8736 21.9809 80.8354 22.4162 80.8337C22.6339 80.8337 22.8481 80.8424 23.0503 80.8294C23.2525 80.8146 23.4419 80.7764 23.609 80.688L23.5738 81.1703C23.8 81.3048 24.0579 81.0115 23.98 80.6758C24.2062 80.8059 24.5027 80.4052 24.668 80.7903C24.8951 80.8632 24.9225 80.55 25.1007 80.4728C25.5566 80.6194 25.7185 80.563 26.1281 80.439L26.0219 80.4182C25.985 80.5266 25.997 80.7305 26.1033 80.7504C26.2489 80.6064 26.6876 80.8328 26.4846 80.2742C26.7211 80.4216 26.9747 80.3323 27.2283 80.2577C27.4819 80.1822 27.7347 80.118 27.9721 80.3201C27.9215 80.1675 28.0278 80.1284 28.0637 80.0191C28.4536 79.9749 28.8949 80.2533 29.1811 79.9593C29.2505 80.0313 29.1074 80.2334 29.2685 80.2351C29.3567 80.1666 29.2505 80.0313 29.3585 79.9315C29.9634 79.5784 30.672 80.1007 31.241 79.9653C32.2358 79.5533 33.3214 79.5906 34.3008 79.4292L34.3025 79.5446C34.5844 79.0701 35.1259 79.902 35.3162 79.2158C35.4061 79.3147 35.6195 79.2349 35.5861 79.4622C35.814 79.1238 36.3547 79.6686 36.6914 79.2305C36.6554 79.2262 36.6383 79.2514 36.6032 79.3043C37.0162 79.5142 37.3161 79.1299 37.7471 79.3095C37.7119 79.3659 37.6408 79.4093 37.6417 79.5255C37.8225 79.7259 37.9596 79.0007 38.1061 79.5402C38.1952 79.5255 38.1395 79.2574 38.0864 79.28C38.5379 79.3364 38.9852 79.2505 39.4334 79.1212C39.657 79.057 39.8798 78.9824 40.1034 78.9096L40.2705 78.8558L40.3116 78.8428L40.3408 78.8298C40.3613 78.8211 40.3776 78.8124 40.4007 78.8037C40.5156 78.7647 40.6304 78.7274 40.7452 78.6944C41.4641 78.9191 40.9209 79.6114 41.3896 79.1238C41.4478 79.2236 41.3904 78.9087 41.4144 79.0215C41.5969 78.8367 41.8188 79.5897 41.9191 79.2826C41.8137 78.9521 41.9868 79.0805 41.9628 78.8749C42.4024 79.0354 42.5232 79.3277 42.8128 79.0302V79.2097C43.1247 78.658 43.5985 78.8705 43.8496 78.252C45.9386 77.8911 47.9402 77.3689 50.0686 77.2145C50.5845 77.2223 51.1003 77.2162 51.6221 77.211L52.0171 77.2084L52.7266 77.2179C52.964 77.2275 53.2047 77.2301 53.4412 77.2474L53.7968 77.2682L54.1481 77.2986C54.3846 77.316 54.61 77.3498 54.8405 77.3775C54.9544 77.3932 55.0641 77.4131 55.1755 77.4313C55.2878 77.4496 55.3991 77.4678 55.5045 77.4929L55.825 77.5632L56.1309 77.6465C56.2346 77.6725 56.3305 77.7055 56.4248 77.7384C56.5182 77.7723 56.6193 77.8018 56.7058 77.8399C57.0734 77.9813 57.3879 78.1557 57.6638 78.3483C57.8026 78.4446 57.9252 78.5487 58.0408 78.6554C58.0957 78.7109 58.1522 78.7647 58.2036 78.8219L58.3562 78.9937C58.387 79.0354 58.4187 79.0796 58.4504 79.123C58.4084 79.4561 58.3793 79.6235 58.4376 79.7693C58.4615 79.8465 58.5121 79.9115 58.5746 80.0026C58.6064 80.046 58.6475 80.092 58.6826 80.1605C58.7186 80.2265 58.7495 80.2906 58.7812 80.3583C58.7023 80.3548 58.6818 80.3227 58.6158 80.3817C58.806 80.3444 58.8266 80.4459 58.8351 80.5431C58.8446 80.6411 58.8411 80.74 59.0408 80.7235C58.9902 81.1235 58.9131 81.5208 58.7255 81.9762C58.6286 82.2035 58.5018 82.4412 58.3304 82.6893C58.1599 82.9365 57.9526 83.1925 57.7135 83.4536C57.8163 83.2757 57.5087 83.1369 57.3716 83.3235C57.4093 83.4059 57.441 83.4926 57.4719 83.582L57.3194 83.5846C57.2894 83.6566 57.2937 83.7433 57.3356 83.8015C57.3776 83.8596 57.4607 83.8882 57.5978 83.8362C57.0323 84.5397 56.3074 85.2363 55.5739 85.88L55.436 86.0006L55.3743 86.0535L55.3383 86.0821L55.1935 86.1967C55.0958 86.2721 54.9973 86.345 54.8987 86.417C54.7 86.561 54.4986 86.6998 54.2964 86.8369C53.4875 87.3834 52.6675 87.8978 52.0043 88.5736C51.5664 88.7584 51.1988 89.3006 50.9049 89.6892C50.2152 89.9911 49.5725 90.2939 49.0259 90.6843C48.7534 90.8795 48.5049 91.0963 48.2984 91.3393C48.1956 91.4607 48.1039 91.5882 48.0302 91.7184C47.9565 91.8476 47.8999 91.9821 47.8802 92.0948C47.8802 92.0948 47.8323 92.0558 47.7611 91.9873C47.69 91.9196 47.5975 91.8216 47.5126 91.701C47.3413 91.4633 47.2076 91.1267 47.3104 90.8231L47.3121 90.8257Z" fill="#FFD21F"/>
<path d="M6.39985 81.4219C6.42641 81.6197 6.5815 81.7437 6.41527 81.9849C6.42127 81.8027 6.36044 81.591 6.39985 81.4219Z" fill="#FFD21F"/>
<path d="M10.7329 83.8362C10.7423 83.7789 10.7937 83.9177 10.8057 83.9498C10.7483 83.9611 10.6849 84.1198 10.6455 84.0183C10.7046 84.0062 10.7012 83.916 10.7321 83.8353L10.7329 83.8362Z" fill="#FFD21F"/>
<path d="M11.9009 84.0209C11.8752 84.1901 11.6155 84.3107 11.4656 84.3228L11.9009 84.0209Z" fill="#FFD21F"/>
<path d="M12.9702 84.7739C13.0602 84.9231 13.0311 85.003 12.9025 84.9917C12.8965 84.9032 12.9411 84.8572 12.9702 84.7739Z" fill="#FFD21F"/>
<path d="M13.0627 84.387C13.1544 84.387 13.1964 84.4894 13.2375 84.5892C13.2392 84.4382 13.0225 84.6742 13.0627 84.387Z" fill="#FFD21F"/>
<path d="M15.443 84.9405C15.5005 84.9266 15.6264 84.7852 15.6787 84.9769C15.6196 84.8433 15.3968 85.1921 15.443 84.9405Z" fill="#FFD21F"/>
<path d="M16.5553 84.6881C16.5913 84.6976 16.6059 84.7306 16.647 84.6829C16.713 84.7618 16.6444 84.8876 16.5887 84.9015L16.5553 84.6881Z" fill="#FFD21F"/>
<path d="M36.4163 82.5011L36.3084 82.5982L36.3066 82.4282L36.4163 82.5011Z" fill="#FFD21F"/>
<path d="M45.0209 81.4158C45.1237 81.2944 45.1186 81.5668 45.1408 81.5893C45.0389 81.6188 45.1554 81.3733 45.0209 81.4158Z" fill="#FFD21F"/>
<path d="M49.5571 80.1631L49.522 80.1701L49.516 79.8178L49.5571 80.1631Z" fill="#FFD21F"/>
<path d="M66.2041 78.1479C66.1201 78.2399 66.3069 78.435 66.1629 78.2902C66.1518 78.1488 66.1535 78.0447 66.2041 78.1479Z" fill="#FFD21F"/>
<path d="M69.8791 89.2182C69.7591 88.7549 69.9065 88.6534 70.0839 88.5788C70.1721 88.5424 70.2681 88.5129 70.3384 88.4504C70.4086 88.3888 70.448 88.2891 70.4309 88.1216C70.4403 88.0661 70.7154 88.5216 70.7188 88.3715C70.6434 87.9889 70.7668 87.8015 70.9956 87.7278C71.1087 87.6905 71.2509 87.6853 71.4017 87.6914C71.5525 87.6983 71.7162 87.7243 71.8807 87.7608L71.9501 87.8848C72.0727 87.9082 71.8559 87.4944 71.9595 87.4884C72.0195 87.5595 72.0221 87.6055 72.1172 87.6896C71.9561 87.4641 72.1506 87.4927 72.0452 87.3131C72.1403 87.3747 72.2783 87.543 72.3897 87.6081L72.2243 87.3383C72.0315 87.0086 72.0992 86.967 72.2029 86.9548C72.3057 86.9427 72.4411 86.9566 72.3803 86.751C72.4222 86.8117 72.4462 86.8672 72.5045 86.9115C72.4162 86.3727 72.7359 86.1949 72.8584 85.8548C72.9261 85.9468 73.0537 86.1021 73.1531 86.1819C72.9398 85.9268 72.9535 85.7967 72.9689 85.6883C73.2294 85.9095 72.861 85.3586 73.0606 85.4254L73.1069 85.487C72.9132 85.1756 73.3271 85.5582 73.0743 85.2068L73.2937 85.3682C72.9835 84.9977 73.543 85.4731 73.4188 85.2545L73.3477 85.1834C73.3074 85.0593 73.4985 85.2138 73.4787 85.1157L73.5224 85.153C73.5224 84.9743 73.7624 85.114 73.4967 84.8477C73.7401 85.0324 73.507 85.0316 73.8618 85.2953C73.8815 84.721 74.2311 84.472 74.513 84.1632C74.6535 84.2335 74.7075 84.2421 74.8172 84.3324C74.7914 84.2491 74.8746 84.1684 74.7615 84.0088C74.758 84.0244 74.9191 84.1216 74.9491 84.119C75.1025 84.1589 74.7049 83.7728 74.8849 83.8292C74.9337 83.9212 75.0134 84.0123 75.1222 84.099C74.9594 83.8474 75.0571 83.8084 75.0459 83.6826C75.0828 83.7355 75.0948 83.7746 75.1847 83.8544C75.0048 83.5603 75.3484 83.7763 75.2499 83.575L75.3878 83.7442C75.6689 83.8257 75.0811 83.4085 75.2704 83.4302C75.303 83.4969 75.3733 83.549 75.4349 83.6115C75.2156 83.2662 75.4221 83.2272 75.3912 83.058C75.4092 83.0823 75.4547 83.1213 75.4547 83.1213C75.4932 83.0033 75.6629 82.9955 75.6183 82.7882C75.7211 82.8186 76.0022 83.1508 76.0245 83.0085C75.6971 82.7231 76.0245 82.7344 75.6097 82.462C75.7288 82.4316 75.9585 82.4169 75.8899 82.266C75.9851 82.41 76.3235 82.5783 76.2935 82.6659L76.536 82.7908C76.662 82.914 76.446 82.8012 76.6277 82.9322C76.6423 82.8871 76.596 82.6798 76.6731 82.6954C76.5249 82.4603 76.1958 82.0803 76.2361 81.9467C76.3252 82.1029 76.6217 82.2321 76.6517 82.3119L76.3938 81.9736C76.3047 81.8634 76.213 81.7567 76.1187 81.6535C76.1221 81.6171 76.3946 81.8617 76.3355 81.7515C76.2421 81.6839 76.2001 81.6266 76.1333 81.5607C76.1813 81.5772 76.1196 81.4063 76.494 81.6223C76.6491 81.6995 76.5317 81.7177 76.6877 81.7671C76.7305 81.7081 76.6054 81.6301 76.6431 81.5746L76.6945 81.6014C76.7374 81.5988 76.7185 81.5494 76.656 81.4947C76.5943 81.4392 76.488 81.3785 76.3672 81.3395C76.3381 81.3533 76.6071 81.4522 76.47 81.4262C76.2652 81.2848 76.2361 81.2076 76.2644 81.1651C76.3184 81.2076 76.4272 81.2544 76.536 81.3126C76.2712 81.1061 76.2027 81.0193 76.1016 80.9239C75.8934 80.8545 76.4615 81.0645 76.3441 81.0393C76.5172 81.0497 76.4503 80.9725 76.3895 80.9152C76.3304 80.8554 76.2772 80.8137 76.5326 80.8259C76.5643 80.8441 76.2053 80.7695 76.2695 80.7816C76.3209 80.7574 76.6568 80.812 76.5506 80.7686C76.7485 80.7955 76.5103 80.7279 76.4657 80.6992C76.3295 80.6706 76.5686 80.7044 76.5754 80.7287C76.5026 80.7001 76.4109 80.6472 76.3775 80.6029C76.3441 80.557 76.3706 80.5188 76.5591 80.4832C76.4846 80.4841 76.3586 80.4745 76.2515 80.4659C76.1444 80.4572 76.057 80.4494 76.0682 80.4433L76.4152 80.4364C76.5643 80.4225 76.518 80.4043 76.5626 80.3895C76.5849 80.3817 76.6294 80.3748 76.7331 80.367C76.608 80.3652 76.584 80.3739 76.602 80.3869C76.6465 80.4138 76.8967 80.4884 76.6988 80.4572C76.8479 80.4477 76.7237 80.432 76.6166 80.4234C76.5094 80.4138 76.422 80.4095 76.662 80.4025C76.6645 80.3965 76.6525 80.3904 76.6337 80.3861C76.5566 80.3635 76.3561 80.3618 76.6491 80.3132C76.584 80.3253 77.1384 80.2967 77.1332 80.2672C77.1118 80.2178 76.9687 80.2681 76.8753 80.2403L76.7391 80.2351C76.3741 80.282 76.8222 80.1883 76.3946 80.262C76.5489 80.2386 76.512 80.2299 76.5129 80.2178C76.5129 80.2056 76.5531 80.1883 76.8659 80.1371L77.3569 80.0616C77.3397 80.0408 76.8642 80.1111 76.65 80.1388C76.6971 80.1284 76.8016 80.1041 76.8856 80.0894C76.4983 80.1605 76.5206 80.1484 76.5677 80.1284C76.6148 80.1085 76.6894 80.0781 76.3895 80.1354C76.5386 80.0885 76.5617 80.0633 76.6106 80.0347C76.6594 80.0052 76.7357 79.9714 77.0004 79.8924C76.9713 79.8968 76.943 79.9011 76.9147 79.9055C76.883 79.9098 76.8522 79.9133 76.8213 79.9176C76.7605 79.9254 76.704 79.9324 76.6611 79.9358C76.5737 79.9436 76.5412 79.9376 76.6243 79.8907C76.7074 79.8725 76.7305 79.8768 76.9087 79.8239C77.1435 79.7207 76.9259 79.7797 76.7854 79.8022C76.9105 79.7684 77.2481 79.5836 77.5043 79.4396C77.2386 79.4891 76.8171 79.6773 76.5514 79.7771C76.937 79.6079 76.7905 79.6331 76.6397 79.6721C76.4872 79.7094 76.3346 79.7606 76.6594 79.5862C76.7725 79.5428 77.075 79.4561 77.2378 79.3424C77.5985 79.1533 77.4383 79.1976 77.2335 79.2739C77.027 79.3477 76.7802 79.4509 76.9276 79.3424L76.3441 79.6617C76.5206 79.5585 76.4169 79.5932 76.3484 79.6174C76.2798 79.6409 76.2438 79.6504 76.5394 79.4865C76.3184 79.5958 76.6705 79.3442 76.129 79.6712C76.3278 79.516 76.2087 79.535 76.1633 79.5238C76.1153 79.5107 76.1376 79.4613 76.5274 79.129C76.4332 79.1854 76.476 79.1126 76.2481 79.3017C76.0125 79.509 76.4649 79.1655 76.2944 79.3069C76.2687 79.3138 76.1401 79.411 76.0742 79.4613C76.1573 79.3711 76.1633 79.3372 76.5711 79.044C76.6731 78.9208 76.4589 79.0692 76.243 79.2314C76.0245 79.3936 75.8051 79.5689 75.8548 79.4882C76.0322 79.3312 76.0887 79.273 76.039 79.293C75.9285 79.3789 75.8222 79.4648 75.7186 79.5524C75.7434 79.4813 76.0562 79.1854 76.3235 78.92C76.243 78.959 76.213 78.9365 76.0108 79.1368C76.1042 79.0215 76.1941 78.9052 76.2815 78.7881C76.0904 79.0406 76.105 78.9469 76.0322 79.0111L76.1059 78.9469C76.2044 78.8271 76.0982 78.8931 76.0502 78.9243C75.9131 79.0969 75.8899 79.1715 75.866 79.2219C75.7451 79.3416 75.7503 79.3077 75.6149 79.4492C75.8454 79.1802 75.7297 79.2496 75.7297 79.2193C75.7503 79.1542 75.5181 79.4596 75.5206 79.4483C75.626 79.3051 75.5026 79.4188 75.6637 79.2236C75.7066 79.1785 75.5815 79.3641 75.6877 79.2418C75.7537 79.1316 75.9336 78.8835 75.7623 79.0614C75.6389 79.1941 75.387 79.6044 75.4658 79.4249C75.5241 79.3555 75.6003 79.247 75.68 79.149C75.6963 79.1004 75.7109 79.051 75.7246 79.0015L75.5575 79.2531C75.5935 79.188 75.6115 79.1672 75.6303 79.1334C75.4469 79.3962 75.5086 79.2045 75.3227 79.5047C75.2901 79.5307 75.3835 79.3242 75.3767 79.2921L75.3912 79.2722C75.4452 79.1169 75.3527 79.2141 75.255 79.3858L75.2816 79.3294C75.2781 79.3077 75.2267 79.3459 75.1513 79.496C75.201 79.2973 75.5223 78.5192 75.3475 78.8428C75.2927 78.8454 75.1213 79.313 75.0811 79.4786C75.0828 79.3893 75.0322 79.45 74.9971 79.4821C74.9603 79.5151 74.9397 79.5186 74.9465 79.3147C74.9208 79.4188 74.914 79.4856 74.89 79.5489C74.8266 79.4405 74.7323 79.8551 74.5644 79.3372C74.6175 79.2271 74.5704 79.0753 74.5704 78.9252C74.525 79.1594 74.519 78.6797 74.501 79.0813C74.5035 79.3208 74.4993 79.4353 74.5481 79.5307C74.441 79.6591 74.2808 79.6582 74.2191 79.4361C74.2499 79.5454 74.2268 79.6192 74.2036 79.6912C74.2088 79.3103 74.1282 79.254 74.07 79.3893L74.0648 79.6192L74.0229 79.3841C74.0006 79.4578 74.0049 79.8656 73.9423 79.6469C73.9372 79.5585 73.932 79.4656 73.92 79.4023C73.8609 79.5914 73.7812 79.9124 73.7092 79.7198L73.645 79.3841C73.6167 79.4205 73.5739 79.6244 73.6278 79.7215C73.5062 79.5229 73.4308 79.4995 73.3828 79.208C73.208 79.9245 72.9269 79.9688 72.6913 79.9315L72.6879 79.7597C72.6159 79.6018 72.6733 80.0625 72.6228 79.9462C72.633 79.7788 72.5525 79.5914 72.5902 79.3858C72.4882 79.2123 72.4925 79.6938 72.4394 79.7762C72.4454 80.0009 72.4771 79.6287 72.4839 79.9159C72.4797 79.9966 72.3486 79.7476 72.358 80.0894C72.3263 79.9558 72.3263 79.7051 72.3288 79.5645L72.2851 79.7346C72.1883 79.339 72.3905 79.0102 72.2851 78.5235L72.2363 78.5816C72.1609 78.2268 72.3477 78.1678 72.2063 78.0516C72.16 78.2268 72.1481 78.7265 72.208 78.8714C72.0975 78.9755 72.2123 79.6921 72.0864 79.6712C72.0375 79.4752 72.1823 79.6166 72.1378 79.3372C72.0581 79.0666 72.0315 79.5012 71.9715 79.4075C72.0392 79.5324 72.017 79.882 71.9852 79.9454C71.9098 79.7883 72.0007 79.6201 71.909 79.5897C71.909 79.7883 71.8404 79.9454 71.9218 80.0746C71.9261 80.524 71.8199 79.9584 71.8002 80.3106C71.7445 80 71.8319 79.5758 71.7205 79.4283C71.7608 79.7285 71.6339 79.8499 71.7239 80.295C71.6785 80.2108 71.6536 79.9731 71.6656 79.784C71.5945 79.6001 71.5817 80.3496 71.5106 79.7502L71.5191 80.0616C71.4926 79.9627 71.4617 79.889 71.418 79.7233C71.3683 79.7215 71.3015 80.157 71.2612 79.6894C71.2501 79.7389 71.1378 79.7311 71.2115 80.0495C71.2989 80.2395 71.2681 79.8048 71.3469 80.2368C71.2655 79.8864 71.2526 80.2924 71.2252 80.4164L71.2012 80.236C71.1849 80.3089 71.1267 80.2759 71.131 80.4719C71.1387 80.367 71.1173 80.2447 71.0941 80.2039L71.0967 80.4815C71.0153 80.6264 71.0256 80.0009 70.9407 80.0885L70.9904 79.869C70.9793 79.9167 70.921 79.6608 70.885 79.7536C70.8928 80.0035 70.891 80.308 70.897 80.5066C70.8568 80.622 70.8439 80.2238 70.8199 80.4893L70.8559 80.1805C70.8576 80.0972 70.7677 79.771 70.6974 79.7857C70.6614 79.8777 70.6306 80.2473 70.7154 80.3757C70.6811 80.3852 70.6151 80.2351 70.6237 80.0512C70.5534 80.1466 70.6631 80.3193 70.6117 80.4824C70.5654 80.3193 70.4515 80.0902 70.3709 79.8534L70.3966 79.4249L70.3478 79.4292C70.3735 79.0857 70.287 79.1759 70.2827 78.8185C70.2433 78.7664 70.2158 78.8922 70.1936 78.9868C70.3555 79.5446 70.1739 79.7771 70.2621 80.2898C70.1482 80.4468 70.0325 79.0423 69.9905 79.8682C70.0291 79.9991 70.0111 80.3999 70.0762 80.2403C69.9879 80.1935 70.083 80.7643 69.9622 80.5648C70.0076 80.3427 69.8217 80.0495 69.8877 79.7276C69.9014 79.902 69.9614 79.8525 69.9716 79.8031C69.9142 79.6088 69.9168 79.2817 69.832 79.2913C69.7857 79.3451 69.7163 79.365 69.76 79.6322C69.7986 79.928 69.8345 79.5914 69.8388 79.8959C69.7497 80.0122 69.676 79.5637 69.7 80.0946C69.7591 80.0434 69.8131 80.3462 69.8363 80.5483L69.778 80.6819L69.7677 80.4824C69.6315 80.3583 69.7771 80.845 69.6563 80.8077L69.5526 80.4268C69.5372 80.0859 69.7394 80.5535 69.6503 80.0096C69.5723 79.9983 69.5826 80.2794 69.4927 80.1458C69.5021 80.0972 69.5226 80.0824 69.5321 80.0304C69.5029 80.0182 69.383 79.2982 69.329 79.7363C69.2947 79.9089 69.3393 79.9332 69.365 80.1362C69.2519 80.2134 69.2433 80.4268 69.1696 80.4693C69.1319 80.0703 69.0265 80.4494 69.0574 80.0304C69.1285 80.2577 69.3007 80.2117 69.2939 79.8248C69.1876 79.3598 69.3984 79.8794 69.3633 79.3997C69.2639 79.4014 69.2082 78.9373 69.1516 78.6337C69.1208 78.6155 69.1114 78.7491 69.1011 78.7985C69.1276 79.0874 69.1628 79.0779 69.2039 79.3719C69.0839 79.3086 68.9991 79.4839 68.976 79.7675C68.9203 79.6322 68.8929 79.3468 68.9331 79.3138C68.814 79.4162 68.6684 79.3954 68.5321 79.3294C68.6786 79.784 68.4096 79.4587 68.5193 79.8378C68.6007 79.9315 68.7035 80.2542 68.6975 80.4702C68.6521 80.445 68.6701 80.2663 68.6384 80.1683C68.6221 80.4312 68.4987 79.7727 68.5047 80.1822C68.6015 80.0139 68.4464 79.6114 68.4156 79.2427C68.359 79.4613 68.3822 78.9833 68.2965 78.9963C68.2391 79.2106 68.1568 79.3858 68.0737 79.4804C67.9015 79.1516 67.7687 79.5203 67.6641 79.5524C67.5793 79.3771 67.5536 78.9581 67.4816 78.8974C67.4114 78.9165 67.6042 79.3338 67.4688 79.1611L67.4662 79.077C67.4491 79.1785 67.2271 78.8297 67.2897 79.4257L67.2511 78.9738C67.2246 78.9365 67.2228 79.0423 67.2143 79.0917C67.1903 78.9477 67.1466 78.8193 67.1629 78.7187C67.0472 78.4203 67.0318 78.7898 66.9632 78.815L67.0515 79.0709C66.9632 79.2982 66.839 79.051 66.7362 79.1611L66.6967 78.9026L66.6522 79.0692C66.6282 78.8176 66.5356 78.6658 66.5339 78.8827L66.6119 78.219C66.6882 78.3639 66.6076 78.5409 66.6822 78.7881C66.7464 79.005 66.8441 78.9182 66.821 78.6667C66.7739 78.645 66.7816 78.7022 66.7644 78.8011C66.6916 78.4437 66.7576 78.4472 66.7499 78.2008C66.7302 78.2216 66.6813 78.1175 66.695 78.232C66.7096 78.049 66.749 78.0152 66.8201 77.9935C66.7936 78.1427 66.8827 78.2103 66.881 78.3162C66.8355 78.0004 66.8895 77.8911 66.9932 77.9657C67.1157 78.3197 67.1243 77.7002 67.2451 77.787C67.2528 78.1132 67.2391 78.3786 67.1971 78.5183C67.2871 78.6667 67.2674 78.4958 67.3582 78.6493C67.3522 78.4038 67.3171 78.0342 67.3805 77.8772L67.4216 78.1132C67.4799 77.9805 67.4259 77.63 67.5347 77.6786C67.7224 77.7705 67.8963 77.7436 68.03 77.754L68.0694 77.9891C68.0677 77.4704 68.2811 77.7653 68.347 77.5285C68.5433 77.7323 68.6752 77.2517 68.8149 77.6482C69.0814 77.4261 69.3161 77.2136 69.6306 77.2622L69.6212 77.6144C69.6452 77.3541 69.6803 77.8078 69.7274 77.7497C69.6332 77.4834 69.7583 77.3836 69.7711 77.1659C69.9382 77.4192 70.0779 77.1077 70.1721 76.8518L70.203 77.0895C70.2767 76.6297 70.4652 77.0045 70.6246 77.0626C70.652 77.1572 70.7017 77.3775 70.7445 77.3472C70.7882 76.9533 70.8345 76.9785 70.933 76.726C71.0221 76.7165 71.1755 76.7963 71.2792 76.9394C71.568 76.3678 71.9407 76.6879 72.2706 76.3374L72.3143 76.6167C72.4659 76.3053 72.6579 76.2801 72.8447 76.294C73.0323 76.307 73.214 76.3591 73.3571 76.1995L73.3451 76.6792C73.4419 76.8258 73.5507 76.5482 73.5173 76.2081C73.6141 76.3513 73.7461 75.9687 73.8138 76.3626C73.9106 76.4493 73.9269 76.1387 74.0066 76.0728C74.2028 76.2524 74.2722 76.2107 74.4564 76.1214L74.411 76.091C74.3904 76.196 74.3887 76.4007 74.4341 76.4294C74.5027 76.2975 74.6826 76.5621 74.6209 75.9878C74.6698 76.0719 74.7229 76.0971 74.7777 76.0945C74.7889 76.0945 74.8129 76.0919 74.8334 76.0884C74.8549 76.0849 74.8754 76.0806 74.8968 76.0754C74.9397 76.065 74.9834 76.052 75.0271 76.0398C75.0716 76.0277 75.1145 76.0173 75.159 76.0112C75.2053 76.006 75.2507 76.0051 75.2944 76.0129C75.381 76.0286 75.4607 76.078 75.5155 76.1934C75.5172 76.0364 75.5995 76.0129 75.6534 75.9106C75.7983 75.9166 75.9268 76.0034 76.0467 76.0607C76.1693 76.1162 76.2858 76.1422 76.4452 76.0268C76.4589 76.1075 76.2798 76.2767 76.3809 76.3053C76.4675 76.255 76.4589 76.1075 76.5763 76.0312C76.7168 75.9765 76.8402 75.9774 76.9473 76.0069C77.0527 76.039 77.1418 76.1006 77.2215 76.1674C77.2995 76.2376 77.3697 76.3105 77.4426 76.3686C77.5145 76.4293 77.5942 76.4701 77.6945 76.4771C78.1118 76.4259 78.4639 76.51 78.7535 76.6384C79.0449 76.7677 79.2788 76.9368 79.5239 77.0843L79.4168 77.1537C79.5521 77.1095 79.6155 77.126 79.6455 77.1641C79.6764 77.2023 79.6721 77.2656 79.6721 77.3229C79.673 77.3801 79.6772 77.4322 79.7252 77.453C79.7741 77.4738 79.8666 77.4652 80.0423 77.4044C79.9746 77.492 80.1065 77.5536 79.882 77.643C80.0731 77.6161 80.0723 77.7315 80.0817 77.846C80.092 77.9605 80.11 78.075 80.3473 78.0898C80.3447 78.0689 80.3182 78.0672 80.2616 78.0681C80.1991 78.2129 80.2702 78.2893 80.3379 78.3778C80.4047 78.4645 80.475 78.5591 80.3979 78.7066C80.3422 78.6988 80.2968 78.6693 80.1871 78.6979C80.0954 78.7734 80.2248 78.7846 80.3105 78.8089C80.3979 78.8315 80.4433 78.8653 80.1819 78.9625C80.1948 79.0093 80.4544 78.9243 80.433 78.8974C80.4296 78.9148 80.427 78.9321 80.4244 78.9486L80.4073 78.9859C80.397 79.0102 80.3884 79.0336 80.3807 79.0579C80.3653 79.1065 80.3567 79.1533 80.3542 79.1993C80.3507 79.2878 80.3636 79.3876 80.3953 79.4812C80.4261 79.5793 80.4698 79.6652 80.5187 79.7805C80.5667 79.8907 80.6164 80.0044 80.6515 80.1206C80.6361 80.1336 80.6198 80.1466 80.6026 80.1562C80.2796 80.3236 80.0088 80.3253 79.8503 80.3279C79.691 80.3305 79.6532 80.321 79.8083 80.4433C79.661 80.4659 80.0585 80.4572 79.9146 80.4615C79.9729 80.5145 79.7526 80.5552 79.5607 80.5856C79.3679 80.6177 79.2017 80.6402 79.3508 80.6801C79.7792 80.6689 79.5444 80.7365 79.7886 80.7513C79.3739 80.9517 79.0063 80.9361 79.1811 81.1312L78.99 81.0913C79.2068 81.2206 79.1888 81.3386 79.1863 81.454C79.182 81.5711 79.1905 81.6882 79.4202 81.8652C79.3216 82.017 79.2257 82.1705 79.1314 82.3258C79.0355 82.4759 78.9403 82.6268 78.8461 82.7813C78.751 82.9383 78.6559 83.0944 78.5616 83.2497L78.4177 83.4891L78.3448 83.6097C78.3294 83.634 78.3286 83.6392 78.3208 83.654L78.302 83.6913C78.1006 84.0843 77.9027 84.4798 77.6379 84.8242C77.4751 84.9656 77.3312 85.1218 77.1932 85.2832L76.7776 85.769C76.6371 85.9294 76.4949 86.0882 76.3312 86.2287C76.1667 86.3693 75.9868 86.4951 75.7803 86.5966C75.3073 86.4109 75.3073 86.4291 75.285 86.725C75.2379 86.6642 75.2353 86.6408 75.1745 86.6009C75.4358 86.8828 75.0879 86.7371 75.3278 87.0138C75.0477 87.1882 74.908 87.4727 74.6723 87.7087C74.6809 87.641 74.4856 87.3921 74.4581 87.4545L74.5781 87.6792L74.4976 87.6081C74.5061 87.6792 74.5995 87.851 74.716 87.9117C74.5164 88.3194 74.1325 88.525 73.7332 88.6985C73.3228 88.866 72.9021 89.0039 72.6176 89.3084C72.3623 89.3058 72.2337 89.5938 72.1112 89.7899C71.7042 89.7829 71.3349 89.7838 71.0144 89.8558C70.6983 89.9313 70.4489 90.0926 70.2861 90.4284C70.2861 90.4284 69.8071 89.547 69.8825 89.2121L69.8791 89.2182Z" fill="#FFD21F"/>
<path d="M66.3137 78.0889C66.3668 78.2763 66.4517 78.3674 66.4405 78.632C66.4037 78.4541 66.3351 78.2607 66.3137 78.0889Z" fill="#FFD21F"/>
<path d="M68.4165 79.7623C68.4105 79.7051 68.4534 79.8361 68.4628 79.8656C68.4431 79.8838 68.4456 80.0469 68.4139 79.9514C68.4336 79.9324 68.4174 79.8439 68.4157 79.7615L68.4165 79.7623Z" fill="#FFD21F"/>
<path d="M68.8861 79.8118C68.9023 79.9809 68.8244 80.1302 68.7704 80.1579L68.8861 79.8118Z" fill="#FFD21F"/>
<path d="M69.3993 80.4546C69.4541 80.5943 69.455 80.6758 69.4053 80.6758C69.3899 80.5882 69.4002 80.5396 69.3993 80.4546Z" fill="#FFD21F"/>
<path d="M69.3778 80.0642C69.4121 80.0564 69.4429 80.1544 69.4721 80.2499C69.4515 80.1006 69.4035 80.3522 69.3778 80.0642Z" fill="#FFD21F"/>
<path d="M70.3444 80.4468C70.3641 80.4303 70.3949 80.2828 70.4369 80.4711C70.3992 80.341 70.3564 80.6992 70.3444 80.4468Z" fill="#FFD21F"/>
<path d="M70.7351 80.1414C70.7497 80.1492 70.7591 80.1813 70.7694 80.1319C70.8028 80.2074 70.7891 80.3358 70.7694 80.3514L70.7343 80.1414H70.7351Z" fill="#FFD21F"/>
<path d="M76.5412 79.5984L76.4041 79.6444L76.6448 79.5246L76.5412 79.5984Z" fill="#FFD21F"/>
<path d="M75.9559 81.0072C76.0433 81.0723 75.7922 80.9543 75.7665 80.9465C75.7631 80.9231 75.9627 81.041 75.9559 81.0072Z" fill="#FFD21F"/>
<path d="M75.644 82.7006L75.65 82.6867L75.9088 82.9227L75.644 82.7006Z" fill="#FFD21F"/>
<path d="M10.1692 100.652C10.2052 102.261 10.3825 102.771 10.8641 102.928C11.2034 103.026 11.595 103.046 11.7552 103.046C11.8443 103.046 11.8975 103.085 11.8975 103.163C11.8975 103.281 11.7904 103.32 11.577 103.32C10.5616 103.32 9.84872 103.262 9.68763 103.262C9.52655 103.262 8.77937 103.32 7.97649 103.32C7.79913 103.32 7.69116 103.301 7.69116 103.163C7.69116 103.085 7.74429 103.046 7.8334 103.046C7.97564 103.046 8.29696 103.026 8.5643 102.928C9.00901 102.791 9.09812 102.222 9.09812 100.435L9.11611 89.1887C9.11611 88.4236 9.16924 88.2075 9.31233 88.2075C9.45543 88.2075 9.7579 88.6387 9.93612 88.8356C10.2035 89.1696 12.8589 92.3291 15.6034 95.5692C17.3685 97.6487 19.3101 100.045 19.8808 100.691L19.6854 90.7199C19.6674 89.4437 19.5423 89.0109 18.9897 88.8547C18.6692 88.7775 18.2588 88.7567 18.1165 88.7567C17.9923 88.7567 17.9743 88.6977 17.9743 88.6187C17.9743 88.5016 18.1165 88.4808 18.3299 88.4808C19.1319 88.4808 19.987 88.5398 20.1833 88.5398C20.3795 88.5398 20.9681 88.4808 21.6982 88.4808C21.8944 88.4808 22.0195 88.5008 22.0195 88.6187C22.0195 88.6968 21.9475 88.7567 21.8233 88.7567C21.7342 88.7567 21.6099 88.7567 21.3957 88.8157C20.807 88.9536 20.7359 89.3839 20.7359 90.5628L20.6999 102.065C20.6999 103.359 20.664 103.458 20.5397 103.458C20.3975 103.458 20.1841 103.242 19.239 102.202C19.0436 102.006 16.4765 99.1208 14.5871 96.8835C12.5195 94.4302 10.5059 91.9561 9.93612 91.2499L10.1683 100.652H10.1692Z" fill="#FBF8F0"/>
<path d="M28.1444 94.2515C28.3474 93.8498 28.422 93.7787 28.5325 93.7787C28.6987 93.7787 28.7544 93.9504 28.9207 94.2228C29.2163 94.7399 31.8228 99.768 32.8202 101.616C33.4123 102.706 33.8553 102.862 34.2066 102.95C34.4474 103.007 34.6873 103.021 34.8535 103.021C34.9461 103.021 35.0566 103.05 35.0566 103.122C35.0566 103.194 34.8715 103.222 34.6864 103.222C34.4465 103.222 33.2452 103.222 32.1176 103.193C31.8031 103.179 31.5444 103.179 31.5444 103.107C31.5444 103.05 31.5821 103.05 31.6557 103.021C31.7483 102.993 31.9145 102.891 31.8031 102.691L30.343 99.8981C30.3053 99.84 30.2874 99.8261 30.1957 99.8261H26.4426C26.3681 99.8261 26.3133 99.8538 26.2764 99.9259L25.3519 101.875C25.2045 102.175 25.1119 102.476 25.1119 102.691C25.1119 102.935 25.3896 103.021 25.6663 103.021H25.8146C25.944 103.021 25.9808 103.065 25.9808 103.122C25.9808 103.193 25.8891 103.222 25.7409 103.222C25.3527 103.222 24.465 103.179 24.2808 103.179C24.1146 103.179 23.3014 103.222 22.6356 103.222C22.4326 103.222 22.3212 103.193 22.3212 103.122C22.3212 103.065 22.3957 103.021 22.4694 103.021C22.5799 103.021 22.8207 103.007 22.9501 102.992C23.6896 102.92 24.004 102.49 24.3185 101.876L28.1444 94.2523V94.2515ZM29.9557 99.3238C30.0294 99.3238 30.0294 99.2952 30.0114 99.2379L28.4031 95.8997C28.3114 95.7124 28.2189 95.7124 28.1264 95.8997L26.6097 99.2379C26.5909 99.2952 26.6097 99.3238 26.6654 99.3238H29.9549H29.9557Z" fill="#FBF8F0"/>
<path d="M54.0711 99.6821C54.0711 100.857 54.0711 101.817 54.1448 102.319C54.2004 102.677 54.2553 102.906 54.7368 102.964C54.9768 102.993 55.3272 103.021 55.4754 103.021C55.5688 103.021 55.6048 103.078 55.6048 103.122C55.6048 103.179 55.5311 103.222 55.3469 103.222C54.4412 103.222 53.3873 103.179 53.3136 103.179C53.2202 103.179 52.204 103.222 51.7053 103.222C51.5382 103.222 51.4465 103.193 51.4465 103.122C51.4465 103.078 51.4825 103.021 51.5759 103.021C51.7233 103.021 51.9264 102.993 52.0746 102.964C52.3891 102.906 52.4448 102.677 52.4996 102.319C52.5741 101.817 52.593 100.858 52.593 99.6821V97.5333C52.593 95.6412 52.593 95.2994 52.5561 94.9108C52.5184 94.4961 52.3891 94.3096 52.0386 94.2515C51.8544 94.2229 51.6504 94.2081 51.5391 94.2081C51.4654 94.2081 51.4097 94.1509 51.4097 94.1083C51.4097 94.0363 51.4842 94.0077 51.6693 94.0077C52.2048 94.0077 53.2219 94.0363 53.3145 94.0363C53.3882 94.0363 54.4421 94.0077 54.9408 94.0077C55.1259 94.0077 55.1987 94.0363 55.1987 94.1083C55.1987 94.1509 55.1259 94.2081 55.0693 94.2081C54.9588 94.2081 54.8491 94.2081 54.664 94.2376C54.2202 94.3096 54.1276 94.4814 54.0908 94.9108C54.0728 95.2994 54.0728 95.6412 54.0728 97.5333V99.6821H54.0711Z" fill="#FBF8F0"/>
<path d="M76.3639 93.8368C80.0235 93.8368 82.7954 95.5692 82.7954 98.406C82.7954 101.243 80.1897 103.379 76.2713 103.379C71.8174 103.379 69.9135 100.785 69.9135 98.5925C69.9135 96.6302 71.8722 93.8368 76.3639 93.8368ZM76.7332 102.877C78.1941 102.877 81.1323 102.276 81.1323 98.7521C81.1323 95.8286 78.841 94.2957 76.2713 94.2957C73.5551 94.2957 71.5946 95.6135 71.5946 98.2646C71.5946 101.101 73.7959 102.877 76.7332 102.877Z" fill="#FBF8F0"/>
<path d="M87.6769 99.6821C87.6769 100.857 87.6769 101.817 87.7497 102.319C87.8054 102.677 87.8611 102.906 88.3427 102.964C88.5817 102.993 88.933 103.021 89.0821 103.021C89.1738 103.021 89.2107 103.078 89.2107 103.122C89.2107 103.179 89.137 103.222 88.9528 103.222C88.0462 103.222 86.9923 103.179 86.9194 103.179C86.826 103.179 85.8098 103.222 85.3103 103.222C85.144 103.222 85.0523 103.193 85.0523 103.122C85.0523 103.078 85.0883 103.021 85.1809 103.021C85.3291 103.021 85.533 102.993 85.6804 102.964C85.9949 102.906 86.0497 102.677 86.1054 102.319C86.18 101.817 86.1988 100.858 86.1988 99.6821V97.5333C86.1988 95.6412 86.1988 95.2994 86.1611 94.9108C86.1243 94.4961 85.9949 94.3096 85.6444 94.2515C85.4594 94.2229 85.2563 94.2081 85.1449 94.2081C85.0721 94.2081 85.0155 94.1509 85.0155 94.1083C85.0155 94.0363 85.0892 94.0077 85.2751 94.0077C85.8107 94.0077 86.8269 94.0363 86.9203 94.0363C86.9931 94.0363 88.0471 94.0077 88.5466 94.0077C88.7308 94.0077 88.8045 94.0363 88.8045 94.1083C88.8045 94.1509 88.7308 94.2081 88.6751 94.2081C88.5655 94.2081 88.4524 94.2081 88.2698 94.2376C87.826 94.3096 87.7326 94.4814 87.6966 94.9108C87.6786 95.2994 87.6786 95.6412 87.6786 97.5333V99.6821H87.6769Z" fill="#FBF8F0"/>
<path d="M94.4975 99.7116C94.4975 101.501 94.5352 102.233 94.83 102.448C95.0888 102.649 95.716 102.734 96.9918 102.734C97.8427 102.734 98.5633 102.72 98.9515 102.362C99.1545 102.175 99.2848 101.918 99.3396 101.674C99.3576 101.588 99.4142 101.517 99.5067 101.517C99.5804 101.517 99.6172 101.573 99.6172 101.702C99.6172 101.83 99.5067 102.563 99.3773 102.921C99.2659 103.208 99.2111 103.25 98.3414 103.25C97.1778 103.25 96.2721 103.236 95.5138 103.208C94.7743 103.193 94.2199 103.179 93.7392 103.179C93.6647 103.179 93.387 103.179 93.0734 103.193C92.741 103.208 92.3897 103.222 92.1309 103.222C91.9638 103.222 91.8721 103.193 91.8721 103.122C91.8721 103.078 91.9098 103.021 92.0015 103.021C92.1489 103.021 92.3528 102.993 92.5002 102.964C92.8147 102.906 92.8524 102.677 92.9261 102.319C93.0186 101.817 93.0186 100.858 93.0186 99.6821V97.5333C93.0186 95.6412 93.0186 95.2994 92.9809 94.9108C92.9449 94.4961 92.8524 94.2949 92.3151 94.2376C92.1866 94.2229 91.9098 94.2081 91.7607 94.2081C91.7059 94.2081 91.6322 94.1509 91.6322 94.1083C91.6322 94.0363 91.7059 94.0077 91.8901 94.0077C92.6296 94.0077 93.6458 94.0363 93.7392 94.0363C93.8138 94.0363 95.0331 94.0077 95.5318 94.0077C95.6988 94.0077 95.7905 94.0363 95.7905 94.1083C95.7905 94.1509 95.716 94.1942 95.6611 94.1942C95.5506 94.1942 95.3098 94.2081 95.1247 94.2229C94.644 94.2949 94.5524 94.4814 94.5147 94.9108C94.4967 95.2994 94.4967 95.6412 94.4967 97.5333V99.7116H94.4975Z" fill="#FBF8F0"/>
<path d="M102.908 97.5333C102.908 95.6412 102.908 95.2994 102.871 94.9108C102.834 94.4961 102.741 94.2949 102.205 94.2376C102.076 94.2228 101.798 94.2081 101.65 94.2081C101.596 94.2081 101.521 94.1508 101.521 94.1083C101.521 94.0363 101.596 94.0077 101.779 94.0077C102.519 94.0077 103.572 94.0363 103.664 94.0363C103.775 94.0363 107.177 94.0511 107.547 94.0363C107.86 94.0216 108.157 93.9791 108.286 93.9652C108.36 93.9504 108.433 93.9088 108.506 93.9088C108.563 93.9088 108.581 93.9652 108.581 94.0216C108.581 94.1083 108.489 94.2515 108.451 94.5959C108.433 94.7104 108.397 95.2552 108.36 95.3983C108.342 95.4564 108.286 95.5267 108.212 95.5267C108.119 95.5267 108.083 95.4703 108.083 95.3697C108.083 95.2829 108.064 95.0834 107.991 94.9394C107.881 94.7399 107.713 94.6531 106.826 94.5672C106.549 94.5386 104.664 94.5239 104.479 94.5239C104.404 94.5239 104.386 94.5672 104.386 94.6531V97.9635C104.386 98.0503 104.386 98.0928 104.479 98.0928C104.681 98.0928 106.826 98.0928 107.196 98.0633C107.583 98.0338 107.824 98.0199 107.991 97.8915C108.102 97.8057 108.175 97.7345 108.23 97.7345C108.285 97.7345 108.325 97.7623 108.325 97.8343C108.325 97.9063 108.23 98.1067 108.195 98.5075C108.159 98.7521 108.121 99.2102 108.121 99.296C108.121 99.3967 108.084 99.5259 107.973 99.5259C107.9 99.5259 107.862 99.4826 107.862 99.4106C107.862 99.296 107.862 99.1668 107.788 99.0098C107.733 98.8371 107.585 98.6949 106.957 98.6376C106.514 98.5934 104.776 98.5795 104.499 98.5795C104.405 98.5795 104.388 98.6229 104.388 98.6654V99.6829C104.388 100.098 104.369 101.518 104.388 101.761C104.425 102.578 104.72 102.735 106.328 102.735C106.753 102.735 107.53 102.735 107.954 102.606C108.379 102.463 108.601 102.248 108.694 101.761C108.731 101.617 108.768 101.574 108.861 101.574C108.954 101.574 108.971 101.675 108.971 101.761C108.971 101.847 108.842 102.678 108.75 102.936C108.638 103.251 108.473 103.251 107.843 103.251C106.623 103.251 105.68 103.222 105.015 103.209C104.331 103.18 103.906 103.18 103.665 103.18C103.629 103.18 103.314 103.18 102.964 103.194C102.649 103.209 102.279 103.222 102.021 103.222C101.854 103.222 101.763 103.194 101.763 103.123C101.763 103.079 101.8 103.022 101.891 103.022C102.04 103.022 102.243 102.979 102.391 102.965C102.705 102.921 102.742 102.678 102.817 102.32C102.908 101.818 102.908 100.858 102.908 99.6829V97.5341V97.5333Z" fill="#FBF8F0"/>
</g>
<defs>
<clipPath id="clip0_65_256">
<rect width="108.971" height="104.314" fill="white"/>
</clipPath>
</defs>
</svg>
