<svg width="1920" height="362" viewBox="0 0 1920 362" fill="none" xmlns="http://www.w3.org/2000/svg">
<path d="M216.97 29.4872C215.51 40.3072 163.02 234.027 155.83 254.387L154.71 257.957C149.45 274.537 144.18 289.277 138.91 302.177C164.96 288.027 198.89 270.497 240.68 249.607C283.21 227.767 497.14 136.957 554.65 116.597C613.34 95.0372 667.24 75.2772 716.35 57.3072C761.33 40.8472 798.59 26.4172 828.68 15.4772C888.22 -6.1728 916.87 -2.0028 915.35 29.4972C914.82 40.3972 912.33 57.8872 906.34 81.8472V81.8772L906.32 81.9072C893.21 131.507 861.4 234.047 854.21 254.407L853.09 257.977C847.83 274.557 842.56 289.297 837.29 302.197C861.66 288.957 892.92 272.767 931.07 253.627L939.06 249.627C982.29 227.427 1030.09 204.657 1082.44 181.317C1083.49 180.677 1084.62 180.077 1085.86 179.527H1085.87L1092.15 176.837C1156.93 149.197 1218.35 124.927 1276.39 104.037C1336.31 81.2672 1393.24 63.2872 1447.18 50.1072L1450.49 49.2672C1590.37 14.0672 1704.43 8.3072 1792.61 32.1172C1852.6 56.5672 1831.08 102.937 1816.67 130.577C1803.47 158.167 1787.28 186.947 1768.1 216.917C1760.92 228.887 1754.33 239.667 1748.34 249.247C1742.37 258.807 1736.99 268.357 1732.21 277.917V277.937L1732.19 277.967C1727.41 286.337 1724.47 292.827 1723.31 297.477V297.517L1723.29 297.557C1722.28 300.587 1721.72 303.137 1721.58 305.207C1725.57 305.107 1733.54 304.527 1745.56 303.437C1758.7 301.047 1780.22 296.267 1810.11 289.087C1840.04 280.707 1881.36 268.137 1934.06 251.367C1986.75 233.407 2055.01 208.857 2138.85 177.717L2138.93 177.687L2139.02 177.667C2145.71 176.447 2151.32 176.727 2155.76 178.627C2160.24 180.547 2163.41 184.067 2165.29 189.077L2165.32 189.157L2165.34 189.247C2166.55 195.947 2166.28 201.547 2164.37 205.987C2162.46 210.467 2158.94 213.637 2153.92 215.517H2153.91C2055.68 250.267 1977.21 277.217 1918.5 296.387H1918.49H1918.48C1859.78 314.357 1815.44 326.947 1785.46 334.137H1785.44H1785.43C1756.68 340.127 1736.23 343.147 1724.13 343.147H1715.55C1712.43 343.147 1700.05 341.677 1693.81 335.247C1690.26 331.587 1687.28 326.987 1685.45 320.877C1680.55 307.377 1682.45 290.937 1690.88 271.667V271.647L1690.9 271.627C1700.5 252.417 1714.9 227.827 1734.07 197.867L1759.23 158.337C1777.44 130.057 1790.25 93.8772 1791.43 86.8372C1792.02 83.2772 1792.31 80.3372 1792.31 78.0172C1792.31 78.0172 1792.08 70.6572 1783.08 68.1772C1749.67 59.8472 1703.69 56.2572 1645.09 57.4572C1587.71 58.6572 1514.73 71.2072 1426.12 95.1572H1426.11C1386.88 105.237 1290.84 137.287 1198.3 174.717C1086.87 219.797 978.54 271.317 954.35 283.747H954.34C911.22 305.307 876.49 323.277 850.16 337.637C837.58 344.227 812 358.557 809.58 359.497C805.73 360.997 802.98 361.107 802.98 361.107C798.06 361.107 794.18 359.877 791.53 357.257C787.86 354.197 785.35 350.917 784.07 347.427C782.79 343.907 782.8 340.227 784.07 336.437V336.407C811.63 262.147 833.18 198.687 848.75 146.007C863.93 94.6172 872.25 58.7072 873.76 38.1872C852 46.6472 341.9 236.137 151.82 337.627C139.24 344.217 129.82 349.297 123.55 352.887C120.41 354.677 118.18 356.257 116.54 357.117C111.43 359.787 107.85 361.097 104.64 361.107C95.67 361.127 87 350.917 85.73 347.417C84.45 343.897 84.46 340.217 85.73 336.427V336.397C113.29 262.137 134.84 198.677 150.4 145.997C165.58 94.6072 173.9 58.6972 175.41 38.1772C153.65 46.6372 117 60.8272 65.47 80.7372H65.46C13.95 99.9072 -44.15 121.467 -108.83 145.427C-172.32 169.387 -234.61 192.747 -295.7 215.507L-295.78 215.537L-295.87 215.557C-302.57 216.777 -308.17 216.497 -312.61 214.597C-317.09 212.677 -320.26 209.157 -322.14 204.147L-322.16 204.077L-322.18 204.007C-323.41 198.457 -323.12 193.447 -321.22 189.027C-319.33 184.607 -315.87 180.867 -310.95 177.797L-310.87 177.747L-310.78 177.717C-256.87 157.357 -201.17 136.987 -143.67 116.627C-84.97 95.0672 -31.07 75.2972 18.05 57.3372C63.48 40.7172 101.27 26.7772 131.27 15.1672C176.31 -2.2628 222.52 -11.1728 217.04 29.5272L216.97 29.4872Z" stroke="#5B6C9F" stroke-miterlimit="10"/>
</svg>
