<svg width="17" height="20" viewBox="0 0 17 20" fill="none" xmlns="http://www.w3.org/2000/svg">
<path d="M3.75 6.5625V4.6875C3.75 3.4443 4.24386 2.25201 5.12294 1.37294C6.00201 0.49386 7.1943 0 8.4375 0C9.6807 0 10.873 0.49386 11.7521 1.37294C12.6311 2.25201 13.125 3.4443 13.125 4.6875V6.5625H15.9375C16.1861 6.5625 16.4246 6.66127 16.6004 6.83709C16.7762 7.0129 16.875 7.25136 16.875 7.5V18.75C16.875 18.9986 16.7762 19.2371 16.6004 19.4129C16.4246 19.5887 16.1861 19.6875 15.9375 19.6875H0.9375C0.68886 19.6875 0.450403 19.5887 0.274587 19.4129C0.098772 19.2371 0 18.9986 0 18.75V7.5C0 7.25136 0.098772 7.0129 0.274587 6.83709C0.450403 6.66127 0.68886 6.5625 0.9375 6.5625H3.75ZM3.75 8.4375H1.875V17.8125H15V8.4375H13.125V10.3125H11.25V8.4375H5.625V10.3125H3.75V8.4375ZM5.625 6.5625H11.25V4.6875C11.25 3.94158 10.9537 3.22621 10.4262 2.69876C9.89879 2.17132 9.18342 1.875 8.4375 1.875C7.69158 1.875 6.97621 2.17132 6.44876 2.69876C5.92132 3.22621 5.625 3.94158 5.625 4.6875V6.5625Z" fill="currentColor"/>
</svg>
