<svg width="23" height="23" viewBox="0 0 23 23" fill="none" xmlns="http://www.w3.org/2000/svg">
<g clip-path="url(#clip0_651_406)">
<path fill-rule="evenodd" clip-rule="evenodd" d="M11.2501 1.17188C10.069 1.17188 8.93634 1.64104 8.10122 2.47617C7.26609 3.31129 6.79693 4.44396 6.79693 5.625C6.79693 6.80604 7.26609 7.93871 8.10122 8.77383C8.93634 9.60896 10.069 10.0781 11.2501 10.0781C12.4311 10.0781 13.5638 9.60896 14.3989 8.77383C15.234 7.93871 15.7032 6.80604 15.7032 5.625C15.7032 4.44396 15.234 3.31129 14.3989 2.47617C13.5638 1.64104 12.4311 1.17188 11.2501 1.17188ZM8.20318 5.625C8.20318 4.81692 8.52419 4.04193 9.09559 3.47053C9.66699 2.89913 10.442 2.57812 11.2501 2.57812C12.0581 2.57812 12.8331 2.89913 13.4045 3.47053C13.9759 4.04193 14.2969 4.81692 14.2969 5.625C14.2969 6.43308 13.9759 7.20807 13.4045 7.77947C12.8331 8.35087 12.0581 8.67188 11.2501 8.67188C10.442 8.67188 9.66699 8.35087 9.09559 7.77947C8.52419 7.20807 8.20318 6.43308 8.20318 5.625ZM11.2501 11.4844C9.08162 11.4844 7.08286 11.9775 5.60255 12.81C4.1438 13.6313 3.04693 14.8744 3.04693 16.4062V16.5019C3.04599 17.5912 3.04505 18.9581 4.24411 19.935C4.8338 20.415 5.65974 20.7572 6.77537 20.9822C7.89287 21.2091 9.35068 21.3281 11.2501 21.3281C13.1494 21.3281 14.6063 21.2091 15.7257 20.9822C16.8413 20.7572 17.6663 20.415 18.2569 19.935C19.456 18.9581 19.4541 17.5912 19.4532 16.5019V16.4062C19.4532 14.8744 18.3563 13.6313 16.8985 12.81C15.4172 11.9775 13.4194 11.4844 11.2501 11.4844ZM4.45318 16.4062C4.45318 15.6084 5.0363 14.7422 6.29162 14.0363C7.52536 13.3425 9.27662 12.8906 11.251 12.8906C13.2235 12.8906 14.9747 13.3425 16.2085 14.0363C17.4647 14.7422 18.0469 15.6084 18.0469 16.4062C18.0469 17.6325 18.0094 18.3225 17.3682 18.8438C17.0213 19.1269 16.4401 19.4034 15.4463 19.6041C14.4554 19.8047 13.1007 19.9219 11.2501 19.9219C9.39943 19.9219 8.0438 19.8047 7.0538 19.6041C6.06005 19.4034 5.4788 19.1269 5.13193 18.8447C4.49068 18.3225 4.45318 17.6325 4.45318 16.4062Z" fill="currentColor"/>
<path d="M19.0782 16.4062C19.0782 15.1543 18.2356 14.0717 16.9725 13.2891L16.7147 13.1367C15.2993 12.3413 13.3671 11.8594 11.2501 11.8594C9.13409 11.8594 7.20135 12.3414 5.78697 13.1367C4.3811 13.9282 3.42198 15.0709 3.42198 16.4062V16.5022C3.42102 17.6111 3.43652 18.7933 4.48106 19.6443L4.68907 19.7996C5.20116 20.151 5.90207 20.4236 6.84971 20.6147L7.27305 20.6924C8.29829 20.8624 9.59954 20.9531 11.2501 20.9531C13.1365 20.9531 14.5659 20.8347 15.6512 20.6147H15.652C16.7343 20.3964 17.4938 20.0716 18.0199 19.6443L18.2044 19.481C19.0665 18.6459 19.0791 17.542 19.0782 16.5022V16.4062ZM17.672 16.4062C17.672 15.8029 17.2251 15.0381 16.0248 14.3635V14.3628C14.8568 13.7061 13.1709 13.2656 11.2508 13.2656C9.32891 13.2657 7.64335 13.7061 6.47544 14.3628C5.27571 15.0375 4.82823 15.803 4.82823 16.4062C4.82823 17.6674 4.88668 18.1611 5.36875 18.5537L5.48594 18.6409C5.7869 18.8469 6.28701 19.0665 7.12803 19.2363C8.08394 19.43 9.41239 19.5469 11.2501 19.5469C13.0878 19.5469 14.4152 19.4301 15.3722 19.2363L15.712 19.1609C16.4587 18.9781 16.8847 18.7544 17.1314 18.553L17.2171 18.4783C17.6208 18.0967 17.672 17.589 17.672 16.4062ZM15.3231 5.42285C15.2731 4.41487 14.8507 3.45847 14.1336 2.74146C13.3689 1.97667 12.3317 1.54688 11.2501 1.54688C10.1685 1.54689 9.13134 1.97667 8.36656 2.74146C7.60178 3.50625 7.17198 4.54343 7.17198 5.625C7.17198 6.70657 7.60178 7.74375 8.36656 8.50854C9.13134 9.27333 10.1685 9.70311 11.2501 9.70312C12.3317 9.70312 13.3689 9.27332 14.1336 8.50854C14.8984 7.74375 15.3282 6.70659 15.3282 5.625L15.3231 5.42285ZM13.919 5.49243C13.8863 4.83207 13.6095 4.20509 13.1397 3.73535C12.6387 3.23429 11.9587 2.95312 11.2501 2.95312C10.5417 2.95314 9.86221 3.2345 9.36119 3.73535C8.86011 4.23643 8.57823 4.91637 8.57823 5.625C8.57823 6.33363 8.86011 7.01357 9.36119 7.51465C9.86221 8.0155 10.5417 8.29686 11.2501 8.29688C11.9587 8.29688 12.6387 8.01571 13.1397 7.51465C13.6408 7.01357 13.922 6.33363 13.922 5.625L13.919 5.49243ZM18.422 16.4062C18.422 17.5971 18.4049 18.483 17.6046 19.1338L17.6053 19.1345C17.1936 19.4705 16.5468 19.7645 15.5209 19.9717C14.4959 20.1792 13.1136 20.2969 11.2501 20.2969C9.38662 20.2969 8.00342 20.1792 6.97935 19.9717C5.95321 19.7645 5.30709 19.47 4.89561 19.1353H4.89488C4.09489 18.4836 4.07823 17.5973 4.07823 16.4062C4.07823 15.4139 4.79696 14.4467 6.10777 13.7095C7.40725 12.9788 9.22426 12.5157 11.2508 12.5156C13.2757 12.5156 15.0929 12.9787 16.3924 13.7095C17.7044 14.4468 18.422 15.414 18.422 16.4062ZM19.8282 16.5015C19.8291 17.5376 19.8464 19.0264 18.6168 20.1211L18.4938 20.2258C17.8386 20.7583 16.9483 21.1185 15.7999 21.3501C14.6465 21.5838 13.1621 21.7031 11.2501 21.7031C9.33797 21.7031 7.85268 21.5832 6.70103 21.3494V21.3501C5.62481 21.133 4.7744 20.8031 4.13316 20.324L4.00718 20.2258C2.65365 19.1231 2.67106 17.5713 2.67198 16.5015V16.4062C2.67198 14.6779 3.907 13.3344 5.41856 12.4834L5.71446 12.3245C7.22344 11.5525 9.16817 11.1094 11.2501 11.1094C13.4717 11.1094 15.5353 11.6139 17.0824 12.4834L17.3622 12.6489C18.7426 13.5041 19.8282 14.7859 19.8282 16.4062V16.5015ZM14.6676 5.79492C14.6256 6.64059 14.2716 7.44336 13.67 8.04492C13.0283 8.68663 12.1576 9.04688 11.2501 9.04688C10.3426 9.04686 9.47189 8.68664 8.83018 8.04492C8.18847 7.4032 7.82823 6.53253 7.82823 5.625C7.82823 4.71747 8.18847 3.8468 8.83018 3.20508C9.47189 2.56336 10.3426 2.20314 11.2501 2.20312C12.1576 2.20312 13.0283 2.56337 13.67 3.20508C14.3117 3.8468 14.672 4.71746 14.672 5.625L14.6676 5.79492ZM16.0724 5.8645C16.0131 7.0578 15.5128 8.18998 14.6639 9.03882C13.7585 9.94425 12.5306 10.4531 11.2501 10.4531C9.96962 10.4531 8.74172 9.94425 7.83628 9.03882C6.98746 8.18998 6.48705 7.05779 6.42784 5.8645L6.42198 5.625C6.42198 4.34451 6.93085 3.11663 7.83628 2.21118C8.74172 1.30574 9.96962 0.796889 11.2501 0.796875C12.5306 0.796875 13.7585 1.30575 14.6639 2.21118C15.5694 3.11663 16.0782 4.3445 16.0782 5.625L16.0724 5.8645Z" fill="currentColor"/>
</g>
<defs>
<clipPath id="clip0_651_406">
<rect width="22.5" height="22.5" fill="white"/>
</clipPath>
</defs>
</svg>
